<?xml version="1.0" standalone="no"?>
<!DOCTYPE svg PUBLIC "-//W3C//DTD SVG 1.1//EN" "http://www.w3.org/Graphics/SVG/1.1/DTD/svg11.dtd" >
<svg xmlns="http://www.w3.org/2000/svg">
<metadata></metadata>
<defs>
<font id="vistasansbookitalicregular" horiz-adv-x="1024" >
<font-face units-per-em="2048" ascent="1638" descent="-410" />
<missing-glyph horiz-adv-x="417" />
<glyph horiz-adv-x="2048" />
<glyph horiz-adv-x="2048" />
<glyph unicode="&#xd;" />
<glyph unicode=" "  horiz-adv-x="417" />
<glyph unicode="&#x09;" horiz-adv-x="417" />
<glyph unicode="&#xa0;" horiz-adv-x="417" />
<glyph unicode="!" horiz-adv-x="499" d="M53 59q0 55 32 86t77 31q41 0 62.5 -22.5t21.5 -59.5q0 -57 -31 -87t-76 -30q-86 0 -86 82zM143 373q29 242 68 499.5t86 507.5h166q-43 -248 -94.5 -503.5t-102.5 -489.5q-29 -6 -61.5 -10t-61.5 -4z" />
<glyph unicode="&#x22;" horiz-adv-x="677" d="M182 911l64 549h174l-131 -532q-49 -16 -107 -17zM481 911l66 549h172l-129 -532q-53 -16 -109 -17z" />
<glyph unicode="#" d="M4 358q6 35 18.5 72t28.5 68h189l137 399h-195q14 76 45 143h199l119 340h112l-116 -340h200l119 340h113l-119 -340h190q-4 -33 -16 -70.5t-27 -72.5h-196l-137 -399h198q-4 -31 -15 -68t-28 -72h-205l-122 -358h-113l121 358h-201l-123 -358h-112l122 358h-186z M354 498h201l137 399h-200z" />
<glyph unicode="$" d="M55 168q6 37 19.5 77t25.5 64q74 -29 159 -42t175 -13q131 0 212 44t81 151q0 66 -41 103.5t-102.5 64t-132 49t-132 55.5t-102.5 85t-41 138q0 74 32 133.5t87 101.5t132 65.5t165 25.5l12 110h152l-23 -104q53 -2 107.5 -8.5t107.5 -16.5q-10 -74 -33 -143 q-57 14 -137 22.5t-149 8.5q-154 0 -224.5 -41t-70.5 -133q0 -57 41 -90t102.5 -57.5t132 -48.5t132 -60.5t102.5 -95t41 -152.5q0 -74 -28 -135.5t-82 -106.5t-132 -71.5t-178 -28.5l-14 -119h-150l27 117q-59 2 -136 14t-137 37z" />
<glyph unicode="%" horiz-adv-x="1646" d="M125 913q0 106 27.5 196.5t77 155t117 100.5t149.5 36q135 0 206.5 -73t71.5 -210q0 -100 -23.5 -190t-69.5 -158t-114.5 -107.5t-158.5 -39.5q-135 0 -209 72.5t-74 217.5zM260 907q0 -178 150 -178q98 0 146 72.5t73 208.5q6 31 8 58t2 52q0 82 -34 128t-111 46 q-96 0 -146.5 -71.5t-77.5 -208.5q-6 -29 -8 -56.5t-2 -50.5zM377 18l786 1375q31 0 64 -5.5t59 -13.5l-797 -1392q-59 8 -112 36zM881 268q0 106 27.5 196.5t76.5 155t117.5 100.5t150.5 36q135 0 206 -73t71 -210q0 -100 -23.5 -190t-69.5 -158t-115 -108t-159 -40 q-133 0 -207.5 73t-74.5 218zM1016 262q0 -176 149 -176q98 0 148.5 71.5t72.5 207.5q4 31 7.5 58t3.5 52q0 82 -35 128t-113 46q-94 0 -147 -71.5t-76 -206.5q-4 -31 -7 -57.5t-3 -51.5z" />
<glyph unicode="&#x26;" horiz-adv-x="1304" d="M41 319q0 80 20.5 144.5t67.5 121t123 106.5t186 104q-33 70 -46 126t-13 105q0 180 99.5 277.5t260.5 97.5q135 0 212 -68.5t77 -185.5q0 -72 -22.5 -128t-69.5 -103.5t-120 -90.5t-173 -86l244 -370q66 57 139.5 130.5t165.5 166.5q2 -16 3 -38t1 -40q0 -68 -12 -121 q-63 -61 -118.5 -114.5t-107.5 -98.5l162 -250q-39 -8 -83 -14t-83 -6l-120 180q-66 -51 -123.5 -87t-109.5 -57.5t-103.5 -30.5t-104.5 -9q-180 0 -266 93t-86 246zM203 332q0 -109 53 -159t160 -50q33 0 68.5 6t76.5 22.5t91 46t112 76.5l-270 408q-88 -43 -144.5 -80 t-89.5 -76t-45 -86t-12 -108zM530 1047q0 -92 54 -199q90 39 148.5 72.5t93 68.5t48 73t13.5 83q0 66 -41 98.5t-113 32.5q-94 0 -148.5 -59.5t-54.5 -169.5z" />
<glyph unicode="'" horiz-adv-x="376" d="M182 911l64 549h174l-131 -532q-49 -16 -107 -17z" />
<glyph unicode="(" horiz-adv-x="540" d="M72 254q0 332 107.5 656.5t322.5 607.5q12 0 30.5 -2.5t39 -6.5t40 -8t31.5 -10q-104 -143 -182 -302t-129 -320.5t-76 -323.5t-25 -316q0 -147 24 -294.5t71 -270.5q-29 -10 -71 -16t-71 -6q-57 137 -84.5 297.5t-27.5 314.5z" />
<glyph unicode=")" horiz-adv-x="540" d="M-102 -332q106 143 184 302t128 321t74.5 323.5t24.5 315.5q0 147 -23.5 294.5t-70.5 270.5q29 10 71 16.5t70 6.5q57 -137 86 -298t29 -315q0 -332 -108.5 -656.5t-323.5 -606.5q-23 0 -69 8t-72 18z" />
<glyph unicode="*" horiz-adv-x="864" d="M104 1044q6 39 21.5 82t34.5 78l289 -139l22 324q41 8 85 10t85 2l-96 -338l315 127q14 -35 26.5 -76t18.5 -82l-346 -63l174 -254q-29 -29 -65.5 -51.5t-81.5 -45.5l-113 297l-219 -282q-35 16 -69.5 37.5t-63.5 50.5l280 254z" />
<glyph unicode="+" horiz-adv-x="1015" d="M74 498l22 123h357l73 403h129l-73 -403h358l-22 -123h-359l-70 -406h-129l72 406h-358z" />
<glyph unicode="," horiz-adv-x="440" d="M-180 -297q76 76 129 133.5t87 108.5t52 102t27 113l10 71h139q0 -20 -4 -55t-8 -55q-10 -59 -33.5 -115.5t-62.5 -114t-94.5 -118t-129.5 -127.5z" />
<glyph unicode="-" horiz-adv-x="512" d="M61 545l25 139h375l-25 -139h-375z" />
<glyph unicode="." horiz-adv-x="440" d="M53 59q0 55 32 86t77 31q41 0 63.5 -22.5t22.5 -59.5q0 -57 -32 -87t-75 -30q-88 0 -88 82z" />
<glyph unicode="/" horiz-adv-x="757" d="M-160 -190l905 1591q29 0 68 -8.5t68 -18.5l-920 -1607q-35 8 -65.5 17t-55.5 26z" />
<glyph unicode="0" d="M72 393q0 84 18 185q25 152 73 257t113.5 172.5t148.5 98.5t177 31q166 0 259 -97.5t93 -312.5q0 -43 -4 -89t-12 -97q-47 -291 -178 -426t-334 -135q-162 0 -258 97t-96 316zM227 377q0 -129 50.5 -194.5t158.5 -65.5q143 0 221 103.5t121 330.5q21 102 21 190 q0 123 -49.5 190.5t-159.5 67.5q-147 0 -225 -108.5t-117 -323.5q-10 -53 -15.5 -101t-5.5 -89z" />
<glyph unicode="1" d="M49 0l27 147h381l143 818l-358 -54q-6 29 -6 62q0 43 10 78l383 65h151l-170 -969h281q-6 -33 -15.5 -72.5t-23.5 -74.5h-803z" />
<glyph unicode="2" d="M14 0l17 135q184 115 309 203t201.5 164t109.5 147.5t33 151.5q0 98 -59.5 143t-157.5 45q-66 0 -136.5 -14t-117.5 -37q-6 41 -6 84q0 18 1 35.5t3 32.5q72 27 140.5 37t142.5 10q162 0 260 -78t98 -238q0 -88 -33 -169t-101.5 -161.5t-178 -164.5t-263.5 -179h539 q-8 -35 -17.5 -72.5t-23.5 -74.5h-760z" />
<glyph unicode="3" d="M-35 -229q6 41 17.5 83t25.5 70q59 -33 128 -46t155 -13q152 0 244 76.5t92 230.5q0 115 -66.5 163t-175.5 48h-192l24 145h193q145 0 220 72t75 182q0 104 -60.5 155.5t-169.5 51.5q-74 0 -136.5 -10t-119.5 -31q-6 25 -6 62q0 23 2 47t6 43q66 20 137.5 28.5t151.5 8.5 q74 0 139.5 -19.5t114.5 -58.5t77.5 -98.5t28.5 -141.5q0 -145 -71.5 -232t-186.5 -122v-8q86 -35 134.5 -104.5t48.5 -178.5q0 -115 -41 -201t-113 -143t-166 -86t-203 -29q-76 0 -161.5 13.5t-145.5 42.5z" />
<glyph unicode="4" d="M29 68l28 153q74 119 155 245t163 245.5t160.5 229.5t144.5 196q29 -2 71 -11.5t64 -21.5l-610 -899h370l72 407h152l-72 -403h174q-8 -35 -18.5 -72t-22.5 -69h-158l-59 -332h-151l59 332h-522z" />
<glyph unicode="5" d="M49 -233q16 82 47 149q47 -23 118 -37t136 -14q152 0 246 70.5t94 220.5q0 129 -86 186t-254 57q-57 0 -100 -2t-82 -6q18 90 40.5 185.5t47.5 190.5t50.5 184t49.5 165h643q-4 -35 -14 -72.5t-22 -72.5h-506l-115 -426q102 0 193.5 -18.5t162 -61.5t111.5 -116t41 -181 q0 -111 -39 -195t-107.5 -141t-163 -87t-206.5 -30q-61 0 -141 13.5t-144 38.5z" />
<glyph unicode="6" d="M113 418q0 100 18 223q31 205 87 349.5t136 235.5t181.5 133t222.5 42q55 0 121.5 -7.5t107.5 -23.5q0 -31 -8 -73t-18 -70q-35 12 -94.5 21t-114.5 9q-82 0 -153 -27.5t-127 -89t-99 -161.5t-72 -246h8q63 78 134 109.5t155 31.5q68 0 125 -20t99 -62t66.5 -108 t24.5 -156q0 -117 -28.5 -217t-85 -174t-139 -115.5t-189.5 -41.5q-170 0 -264 103t-94 335zM262 352q0 -117 56.5 -177t160.5 -60q135 0 206 109t71 302q0 115 -56.5 167t-154.5 52q-72 0 -125 -30.5t-88 -83.5t-52.5 -125t-17.5 -154z" />
<glyph unicode="7" d="M-45 -248l844 1219h-623q0 35 3 72.5t11 72.5h795l-16 -139q-86 -135 -194.5 -297t-223.5 -329t-230.5 -329.5t-216.5 -300.5q-39 4 -78.5 11.5t-70.5 19.5z" />
<glyph unicode="8" d="M80 315q0 276 307 410q-80 53 -119 123t-39 156q0 96 31 169.5t85 125t129 77t165 25.5q152 0 245 -76t93 -217q0 -131 -70.5 -229.5t-216.5 -151.5q102 -53 150.5 -138t48.5 -183q0 -100 -33 -180.5t-91 -134.5t-141 -82.5t-186 -28.5q-76 0 -141.5 18t-113.5 59 t-75.5 104.5t-27.5 153.5zM238 326q0 -98 49 -156.5t166 -58.5q139 0 205.5 83t68.5 214q0 92 -49 157.5t-160 102.5q-141 -47 -210.5 -136.5t-69.5 -205.5zM385 1014q0 -84 39 -144.5t139 -89.5q121 37 187.5 120t70.5 194q0 78 -51 126t-143 48q-127 0 -184.5 -72 t-57.5 -182z" />
<glyph unicode="9" d="M45 -254q0 31 7 73t20 70q35 -12 94 -21t113 -9q84 0 153.5 27.5t126.5 89t100 162t70 245.5h-8q-61 -78 -132 -109.5t-157 -31.5q-68 0 -125 20.5t-99 62.5t-65.5 107.5t-23.5 155.5q0 117 28.5 217t85 174t138.5 116t188 42q170 0 264.5 -104t94.5 -335 q0 -51 -4.5 -106t-12.5 -117q-27 -205 -83 -349t-137 -235.5t-183.5 -133.5t-223.5 -42q-57 0 -122.5 7.5t-106.5 23.5zM276 590q0 -115 56.5 -167t152.5 -52q72 0 125.5 30.5t88 84t52 125t17.5 153.5q0 117 -55.5 177t-159.5 60q-135 0 -206 -109.5t-71 -301.5z" />
<glyph unicode=":" horiz-adv-x="440" d="M51 59q0 55 32 86t77 31q41 0 63.5 -22.5t22.5 -59.5q0 -57 -32 -87t-75 -30q-88 0 -88 82zM197 877q0 57 30.5 86.5t77.5 29.5q84 0 84 -82q0 -55 -30.5 -85.5t-75.5 -30.5q-41 0 -63.5 22.5t-22.5 59.5z" />
<glyph unicode=";" horiz-adv-x="440" d="M-176 -297q76 76 129 133.5t87 108.5t52.5 102t26.5 113l10 71h139q0 -20 -4 -55t-8 -55q-10 -59 -33.5 -115.5t-61.5 -114t-93.5 -118t-128.5 -127.5zM197 877q0 57 31.5 86.5t76.5 29.5q41 0 63.5 -21.5t22.5 -60.5q0 -55 -30.5 -85.5t-75.5 -30.5q-41 0 -64.5 22.5 t-23.5 59.5z" />
<glyph unicode="&#x3c;" horiz-adv-x="804" d="M94 573l496 451h162v-16l-486 -445l328 -459v-12h-158z" />
<glyph unicode="=" horiz-adv-x="1003" d="M88 311l21 121h737l-21 -121h-737zM156 700l20 121h737l-20 -121h-737z" />
<glyph unicode="&#x3e;" horiz-adv-x="804" d="M51 90v16l486 445l-328 459v12h158l342 -481l-496 -451h-162z" />
<glyph unicode="?" horiz-adv-x="753" d="M51 57q0 57 31 87t78 30q84 0 84 -82q0 -55 -31 -85t-76 -30q-41 0 -63.5 21.5t-22.5 58.5zM117 369q2 68 9 157.5t19 161.5q231 59 353.5 144.5t122.5 228.5q0 98 -63.5 146t-178.5 48q-57 0 -108.5 -6t-98.5 -16q-6 16 -9 41.5t-3 50.5q0 12 1 26.5t3 26.5 q109 23 242 23q78 0 146.5 -19.5t118.5 -58.5t79.5 -98.5t29.5 -141.5q0 -84 -26.5 -154.5t-86 -130t-152.5 -108.5t-226 -92l-37 -213q-33 -6 -69 -10t-66 -6z" />
<glyph unicode="@" horiz-adv-x="1728" d="M123 471q0 238 66.5 412t182 289.5t271.5 172t334 56.5q145 0 265 -39t206 -115t133 -188.5t47 -257.5q0 -131 -30.5 -245t-86 -198t-132 -132t-169.5 -48q-74 0 -124 20.5t-72 80.5h-4q-74 -57 -145.5 -79t-139.5 -22q-111 0 -173.5 58.5t-62.5 162.5v27q0 12 5 25 q8 66 35.5 108.5t71.5 69t103.5 40t131.5 15.5l227 8l39 226q-27 16 -82 27t-109 11q-61 0 -120.5 -9t-98.5 -25q-6 23 -6 59q0 35 6 66q104 29 228 28q88 0 177 -20.5t148 -59.5l-106 -604q-2 -10 -2 -18v-15q0 -74 90 -73q49 0 99 32.5t91 98t66.5 163t25.5 226.5 q0 117 -39.5 207t-112.5 151.5t-173.5 92t-220.5 30.5q-172 0 -304.5 -55t-223.5 -159.5t-137 -255t-46 -343.5q0 -233 117.5 -366.5t357.5 -133.5q31 0 73 4.5t84 10.5t79.5 15t64.5 17q6 -31 6 -69q0 -33 -6 -53q-29 -10 -67.5 -17.5t-80.5 -12.5t-85 -8t-78 -3 q-135 0 -245 42t-187.5 120.5t-119.5 193.5t-42 258zM629 414q0 -59 31.5 -91t101.5 -32q61 0 125.5 21.5t118.5 62.5l38 215l-223 -10q-92 -4 -136 -31t-54 -98q-2 -10 -2 -19v-18z" />
<glyph unicode="A" horiz-adv-x="1163" d="M-49 12q160 334 338 678t366 690h179q61 -336 117.5 -685t103.5 -683q-39 -12 -80 -16t-82 -6l-70 440h-491l-221 -440q-37 2 -81 7t-79 15zM399 571h406l-86 553q-2 10 -2 17v16v23q0 14 2 37h-12q-4 -31 -12.5 -55.5t-14.5 -37.5z" />
<glyph unicode="B" horiz-adv-x="1193" d="M113 10l239 1356q92 14 189.5 21.5t183.5 7.5t157.5 -18.5t123 -57.5t80 -99.5t28.5 -144.5q0 -127 -69.5 -222t-186.5 -126v-12q90 -33 142.5 -100.5t52.5 -184.5q0 -121 -45 -206t-120 -139t-174.5 -78.5t-207.5 -24.5q-72 0 -179.5 7t-213.5 21zM301 135 q66 -8 122 -11t97 -3q160 0 257 72.5t97 236.5q0 102 -56 157.5t-177 55.5h-250zM414 772h239q123 0 206 71t83 216q0 98 -54 149.5t-175 51.5q-47 0 -98.5 -3.5t-116.5 -9.5z" />
<glyph unicode="C" horiz-adv-x="1175" d="M135 492q0 53 4 107t15 114q25 145 69 258q82 217 233.5 323.5t366.5 106.5q45 0 95.5 -5t98.5 -14.5t91 -22t74 -28.5q-10 -37 -22.5 -78t-29.5 -79q-61 35 -153 54t-172 19q-145 0 -244.5 -69.5t-159.5 -227.5q-45 -115 -69 -282q-8 -51 -12.5 -98.5t-4.5 -90.5 q0 -184 82 -265t250 -81q86 0 174 19.5t164 60.5q4 -23 6 -45.5t4 -46.5q2 -18 3 -36.5t1 -37.5q-39 -18 -87 -30.5t-97 -20.5t-96 -12t-84 -4q-240 0 -370 123.5t-130 388.5z" />
<glyph unicode="D" horiz-adv-x="1396" d="M115 10l237 1356q51 6 107.5 12t113 9.5t110.5 5.5t99 2q115 0 211.5 -31t166 -95.5t109.5 -164t40 -238.5q0 -215 -53.5 -379.5t-149.5 -277.5t-230.5 -170t-297.5 -57q-47 0 -105.5 2t-120 5t-123 8t-114.5 13zM309 145q29 -2 64 -5t71.5 -5t72.5 -3t67 -1 q125 0 226 47t172 139.5t108.5 230.5t37.5 318q0 117 -32.5 190.5t-86 115.5t-121 57.5t-134.5 15.5q-59 0 -120 -3t-132 -9z" />
<glyph unicode="E" horiz-adv-x="1116" d="M113 0l243 1380h758q-6 -39 -15 -77.5t-24 -73.5h-573l-78 -430h438l-24 -152h-439l-88 -495h619q-4 -35 -13.5 -75t-23.5 -77h-780z" />
<glyph unicode="F" horiz-adv-x="1056" d="M113 0l243 1380h768q-12 -76 -37 -151h-585l-80 -461h479l-27 -152h-481l-108 -616h-172z" />
<glyph unicode="G" horiz-adv-x="1312" d="M135 494q0 49 4 106t15 115q33 190 94 321t150 212t204 117t250 36q88 0 193.5 -15.5t187.5 -50.5q-8 -41 -20.5 -82t-28.5 -75q-31 16 -74 28.5t-89 21.5t-92 14t-83 5q-104 0 -186 -23.5t-145.5 -85t-108 -169t-72.5 -277.5q-10 -55 -14.5 -112.5t-4.5 -98.5 q0 -100 23.5 -167.5t69 -107.5t112 -56.5t152.5 -16.5q47 0 113.5 10.5t119.5 32.5l64 371h-275q-2 12 -3 23.5t-1 23.5q0 27 3 53.5t9 48.5h463l-112 -637q-39 -18 -88.5 -32.5t-102.5 -24.5t-108.5 -16t-104.5 -6q-139 0 -236.5 35.5t-158.5 101t-90 162t-29 215.5z" />
<glyph unicode="H" horiz-adv-x="1402" d="M113 0l243 1380h172l-102 -573h637l100 573h174l-243 -1380h-174l116 653h-637l-114 -653h-172z" />
<glyph unicode="I" horiz-adv-x="593" d="M113 0l243 1380h172l-243 -1380h-172z" />
<glyph unicode="J" horiz-adv-x="616" d="M-109 -236q0 43 7 78q119 0 175 57.5t79 182.5l227 1298h172l-223 -1280q-18 -106 -50 -183t-83.5 -128t-123 -77.5t-169.5 -33.5q-4 16 -7.5 40t-3.5 46z" />
<glyph unicode="K" horiz-adv-x="1239" d="M113 0l243 1380h170l-120 -680h8l702 691q18 0 43 -1t51.5 -4.5t52 -7.5t42.5 -10l-584 -561q100 -186 187 -375.5t184 -421.5q-41 -10 -84 -15t-84 -5l-324 698l-238 -227l-79 -461h-170z" />
<glyph unicode="L" horiz-adv-x="966" d="M113 0l243 1380h172l-217 -1226h574q-8 -37 -18.5 -76t-24.5 -78h-729z" />
<glyph unicode="M" horiz-adv-x="1720" d="M76 8q86 344 179 683t196 689h194l154 -1032q4 -23 4 -65v-90h14q23 100 51 157l512 1030h201q-23 -348 -51.5 -693t-65.5 -687h-161l98 1028q2 25 7 59.5t9 67.5h-12q-12 -43 -21.5 -73.5t-19.5 -53.5l-514 -1028h-158l-151 1028q-2 10 -3 48t-1 79h-15q-4 -41 -8 -72.5 t-10 -54.5l-277 -1036q-35 0 -79 4t-72 12z" />
<glyph unicode="N" horiz-adv-x="1404" d="M113 0l239 1366q41 10 91.5 14t86.5 4l410 -978q10 -27 20.5 -64t20.5 -80l14 2q2 37 6.5 82t10.5 80l168 954h159l-241 -1374q-35 -8 -79 -12t-79 -4l-432 1038l-37 125l-12 -2q0 -41 -2 -78t-8 -67l-177 -1006h-159z" />
<glyph unicode="O" horiz-adv-x="1361" d="M135 496q0 78 9.5 152.5t29.5 160.5q68 301 225.5 446.5t401.5 145.5q227 0 350 -131t123 -391q0 -98 -15.5 -189.5t-37.5 -177.5q-74 -274 -228.5 -403t-384.5 -129q-225 0 -349 130t-124 386zM315 469q0 -340 308 -340q90 0 157.5 23.5t118.5 77t89 138.5t65 210 q16 78 28.5 160.5t12.5 168.5q0 184 -82 264t-232 80q-88 0 -157.5 -26.5t-121.5 -84t-89 -148.5t-62 -222q-16 -76 -25.5 -149.5t-9.5 -151.5z" />
<glyph unicode="P" horiz-adv-x="1153" d="M113 0l241 1366q100 14 184.5 21.5t182.5 7.5q88 0 161.5 -19.5t127 -63.5t83 -114t29.5 -168q0 -127 -45 -222t-121.5 -158.5t-177 -95.5t-211.5 -32h-192l-92 -522h-170zM399 666h168q82 0 151.5 21.5t121 65.5t80 111.5t28.5 161.5q0 129 -67.5 179t-175.5 50 q-47 0 -98.5 -3t-104.5 -9z" />
<glyph unicode="Q" horiz-adv-x="1361" d="M135 496q0 47 4 104t15 113q59 350 221 519t426 169q229 0 351 -133.5t122 -393.5q0 -92 -19 -206q-53 -330 -203.5 -501t-406.5 -181q-4 -16 -7 -41t-3 -39q0 -84 49 -119t147 -35q41 0 98.5 9.5t90.5 21.5q6 -31 6 -70t-6 -82q-53 -16 -106.5 -23t-100.5 -7 q-76 0 -137.5 16t-104.5 51t-66.5 90.5t-23.5 132.5q0 16 2 45t9 58q-162 29 -259.5 151.5t-97.5 350.5zM315 469q0 -340 306 -340q98 0 170.5 27.5t125 92t90 168t64.5 255.5q12 66 17.5 124t5.5 109q0 96 -22.5 162t-63.5 106.5t-98.5 59t-129.5 18.5q-88 0 -158.5 -26.5 t-125 -89t-93 -167t-65.5 -261.5q-10 -66 -16.5 -127.5t-6.5 -110.5z" />
<glyph unicode="R" horiz-adv-x="1212" d="M113 0l239 1366q96 14 187.5 21.5t175.5 7.5q86 0 158.5 -18.5t126 -58.5t83 -105.5t29.5 -159.5q0 -166 -94 -281t-262 -143q49 -47 99 -128t89 -192l100 -295q-41 -12 -86 -17t-90 -7l-75 231q-41 119 -88.5 212t-94.5 147h-227l-102 -580h-168zM408 717h180 q162 0 256 82.5t94 240.5q0 119 -62.5 166t-181.5 47q-45 0 -97 -4t-97 -8z" />
<glyph unicode="S" horiz-adv-x="1056" d="M61 45q10 41 22.5 81t29.5 71q78 -35 161.5 -51.5t171.5 -16.5q156 0 225.5 65.5t69.5 176.5q0 76 -38.5 127t-96 91t-126 75.5t-126 79.5t-96.5 105.5t-39 154.5q0 98 39 172.5t107.5 124t162 75t199.5 25.5q33 0 72 -2t76.5 -6t74.5 -10.5t66 -14.5q-4 -41 -14.5 -81 t-26.5 -75q-59 18 -143 28.5t-150 10.5q-162 0 -224.5 -61.5t-62.5 -163.5q0 -68 39 -113t96.5 -82.5t126 -74.5t126 -85t96.5 -116t39 -166q0 -88 -35 -162.5t-99.5 -130t-155.5 -86t-204 -30.5q-43 0 -91 4t-96.5 11t-93.5 19.5t-82 30.5z" />
<glyph unicode="T" horiz-adv-x="1001" d="M180 1229l27 151h913q-6 -37 -17 -75.5t-28 -75.5h-358l-217 -1229h-172l217 1229h-365z" />
<glyph unicode="U" horiz-adv-x="1372" d="M180 373q0 39 7.5 98t17.5 113l139 796h172l-145 -821q-8 -47 -13.5 -97t-5.5 -79q0 -123 63.5 -185.5t213.5 -62.5q82 0 142 20.5t104.5 65.5t73 117t46.5 174l156 868h160l-148 -835q-25 -133 -61.5 -237.5t-98 -177.5t-154.5 -111.5t-231 -38.5q-100 0 -181 20 t-138 67.5t-88 122t-31 183.5z" />
<glyph unicode="V" horiz-adv-x="1189" d="M221 1370q35 6 82 11t80 5l145 -1099q4 -23 6.5 -52.5t2.5 -58.5h12q6 29 17.5 58.5t21.5 52.5l534 1099q33 0 82 -5t78 -11q-160 -352 -331 -696t-351 -674h-180q-63 330 -113.5 675t-85.5 695z" />
<glyph unicode="W" horiz-adv-x="1847" d="M264 1370q35 8 82 12t76 4l45 -1042q2 -31 2 -76v-63h12q8 37 18.5 72.5t22.5 64.5l477 1038h156l105 -1038q4 -27 4 -61v-76h12q4 29 15.5 68.5t21.5 68.5l422 1044q33 0 78.5 -4t74.5 -12q-123 -334 -269 -687t-294 -683h-180l-107 1024q-4 29 -4 66v67h-12 q-20 -100 -45 -149l-461 -1008h-180q-16 199 -31.5 414t-25.5 434q-6 133 -10.5 263t-4.5 259z" />
<glyph unicode="X" horiz-adv-x="1230" d="M-10 10l559 703l-299 657q47 8 97 11t91 3l215 -491q16 -37 23 -80h10q10 20 22.5 39.5t30.5 44.5l371 487q18 0 44 -1t52.5 -2t50 -4t41.5 -7l-520 -655l301 -705q-43 -10 -89 -15t-89 -5l-223 528q-8 18 -15.5 42t-11.5 48h-12q-12 -23 -25.5 -44t-29.5 -44l-410 -530 q-18 0 -43 1t-50.5 4t-50 6t-40.5 9z" />
<glyph unicode="Y" horiz-adv-x="1138" d="M217 1370q39 8 87 11t83 3l188 -604q16 -49 23 -102h12q27 55 60 106l401 600q39 0 88 -3t84 -11q-74 -117 -143.5 -223.5t-140 -208.5t-142.5 -203.5t-151 -210.5l-93 -524h-174l93 524q-86 211 -152 423t-123 423z" />
<glyph unicode="Z" horiz-adv-x="1126" d="M0 0l10 137l905 1092h-673q0 37 4 78t14 73h885l-10 -135l-908 -1093h727q-4 -35 -15 -77t-24 -75h-915z" />
<glyph unicode="[" horiz-adv-x="714" d="M55 -358l330 1863h387q-4 -31 -11 -69.5t-22 -73.5h-223l-280 -1577h219q2 -10 2 -21v-22q0 -57 -15 -100h-387z" />
<glyph unicode="\" horiz-adv-x="757" d="M164 1374q31 10 69.5 18.5t67.5 8.5l352 -1591q-31 -16 -62.5 -25.5t-70.5 -17.5z" />
<glyph unicode="]" horiz-adv-x="714" d="M-74 -358q4 31 12.5 69.5t20.5 73.5h223l281 1577h-217q-2 10 -3 21.5t-1 21.5q0 27 4 52.5t10 47.5h387l-330 -1863h-387z" />
<glyph unicode="^" horiz-adv-x="1007" d="M170 743q39 74 90 162t104.5 176t104.5 167t88 132h186q16 -51 38 -130t43.5 -167t42 -177t34.5 -161q-31 -8 -67.5 -11t-71.5 -3l-125 543l-324 -543q-29 0 -71.5 3t-71.5 9z" />
<glyph unicode="_" d="M-141 -285l22 125h1057q-6 -29 -16.5 -62.5t-22.5 -62.5h-1040z" />
<glyph unicode="`" d="M379 1497h158l104 -311q-25 -8 -56.5 -11.5t-60.5 -3.5q-53 76 -91 162t-54 164z" />
<glyph unicode="a" horiz-adv-x="1085" d="M49 236v28t2 29q12 86 46 141t89.5 88t131 47.5t169.5 18.5l228 10l55 303q-35 20 -98.5 32.5t-128.5 12.5q-66 0 -135.5 -11t-120.5 -30q-2 14 -3 30.5t-1 33.5q0 20 2 43.5t6 42.5q72 20 136.5 27.5t133.5 7.5q51 0 104.5 -6.5t103.5 -18.5t94 -30.5t75 -43.5 l-137 -780q-2 -10 -2 -25q0 -51 59 -51h113l-6 -47q-12 -59 -44 -83.5t-90 -24.5q-68 0 -112.5 25.5t-67.5 90.5h-6q-82 -68 -160.5 -92t-158.5 -24q-133 0 -205 67.5t-72 188.5zM213 254q0 -70 34 -105.5t115 -35.5q70 0 146 22.5t139 73.5l49 272l-233 -8 q-117 -4 -174.5 -43t-73.5 -135q-2 -10 -2 -21v-20z" />
<glyph unicode="b" horiz-adv-x="1169" d="M125 92l250 1417q31 6 79 10.5t83 4.5l-97 -537h11q66 53 132 78t138 25q70 0 130 -24t105 -72t72 -122t27 -172q0 -35 -4 -86t-11 -92q-43 -276 -177 -409t-353 -133q-104 0 -207.5 27.5t-177.5 84.5zM299 174q18 -12 45 -22.5t57.5 -16.5t61.5 -10t55 -4 q135 0 226.5 90t125.5 303q6 41 12.5 96t6.5 86q0 139 -64.5 194.5t-158.5 55.5q-137 0 -248 -90z" />
<glyph unicode="c" horiz-adv-x="972" d="M117 403q0 72 12 152q25 158 78 261.5t122.5 163.5t153.5 85t170 25q68 0 145 -11.5t128 -34.5q-8 -41 -18.5 -78.5t-26.5 -72.5q-47 23 -116 34t-134 11q-139 0 -222 -95t-112 -298q-4 -35 -7 -71t-3 -71q0 -150 64.5 -211t191.5 -61q59 0 121.5 14.5t115.5 44.5 q10 -35 15.5 -73.5t7.5 -73.5q-31 -18 -67 -29.5t-73.5 -19.5t-73.5 -11t-65 -3q-199 0 -303 108.5t-104 314.5z" />
<glyph unicode="d" horiz-adv-x="1179" d="M117 369q0 72 8 135t20 121q29 127 79 216t118 144t147.5 80t165.5 25q25 0 56.5 -3.5t65.5 -7.5t65.5 -11t56.5 -17l82 458q31 6 79 10.5t83 4.5l-269 -1524h-159l14 82h-8q-63 -53 -129 -77.5t-143 -24.5q-147 0 -239.5 99t-92.5 290zM283 371q0 -68 16 -116t46 -76.5 t70 -42t87 -13.5q66 0 126 18.5t124 65.5l122 700q-43 18 -110.5 29.5t-116.5 11.5q-51 0 -101 -15t-95 -53t-80 -102.5t-58 -161.5q-16 -66 -23 -125t-7 -120z" />
<glyph unicode="e" horiz-adv-x="1064" d="M117 403q0 70 12 150q23 150 71 252t113.5 165.5t146.5 91.5t169 28q164 0 254 -86t90 -244q0 -41 -11.5 -109.5t-27.5 -136.5h-643q-12 -68 -12 -123q0 -137 62 -199.5t198 -62.5q74 0 149.5 19.5t126.5 48.5q10 -33 15.5 -72t7.5 -74q-66 -35 -151 -53t-163 -18 q-203 0 -305 108.5t-102 314.5zM311 627h488q10 35 15 75.5t5 63.5q0 104 -55 150.5t-148 46.5q-115 0 -192.5 -79t-112.5 -257z" />
<glyph unicode="f" horiz-adv-x="702" d="M137 0l164 932h-131l25 137h131l24 135q18 96 53 157.5t82 97.5t103.5 50.5t113.5 14.5q23 0 52 -2t45 -6q-4 -35 -11.5 -72t-17.5 -72q-23 4 -48.5 5t-47.5 1q-72 0 -111 -40t-53 -124l-25 -145h238q-12 -66 -35 -137h-227l-164 -932h-160z" />
<glyph unicode="g" horiz-adv-x="1101" d="M18 -143q0 63 30 123.5t118 132.5q-12 25 -20.5 62.5t-12.5 78.5q23 55 65 120.5t87 110.5q-41 39 -61.5 93.5t-20.5 115.5q0 100 31.5 175t87 124t128 73t154.5 24q45 0 93 -5.5t81 -15.5h318q-6 -59 -29 -117l-160 -10l-4 -6q20 -31 31.5 -66.5t11.5 -78.5 q0 -100 -32.5 -174t-88 -121t-127 -71t-149.5 -24q-41 0 -90 7.5t-82 19.5q-51 -59 -72.5 -97t-21.5 -71q0 -55 49 -55h301q61 0 111.5 -12.5t87 -43t56 -81t19.5 -125.5q0 -86 -30.5 -157t-92 -121t-153.5 -78.5t-213 -28.5q-113 0 -189.5 23.5t-123 63.5t-67 94t-20.5 118 zM168 -117q0 -98 59.5 -145t202.5 -47q154 0 239 53t85 172q0 86 -33 113.5t-103 27.5h-366q-47 -39 -65.5 -79.5t-18.5 -94.5zM358 696q0 -90 47.5 -131t139.5 -41q117 0 185.5 69t68.5 208q0 92 -50.5 132t-140.5 40q-119 0 -184.5 -71t-65.5 -206z" />
<glyph unicode="h" horiz-adv-x="1202" d="M109 0l266 1509q33 6 80 10.5t82 4.5l-99 -547h8q82 66 156 89.5t164 23.5q57 0 108.5 -13.5t90.5 -44.5t61.5 -77.5t22.5 -114.5q0 -18 -2.5 -41t-6.5 -39l-133 -760h-159l135 764q4 20 4 45q0 57 -38 96t-138 39q-86 0 -154 -22.5t-139 -73.5l-150 -848h-159z" />
<glyph unicode="i" horiz-adv-x="573" d="M111 0l188 1069h158l-189 -1069h-157zM332 1354q0 53 31.5 86t78.5 33q45 0 65.5 -24.5t20.5 -59.5q0 -53 -30.5 -86t-79.5 -33q-43 0 -64.5 24.5t-21.5 59.5z" />
<glyph unicode="j" horiz-adv-x="575" d="M-139 -295q115 6 167 61.5t70 159.5l203 1143h158l-201 -1137q-31 -172 -121 -268t-260 -106q-8 29 -12 70.5t-4 76.5zM334 1354q0 53 31.5 86t78.5 33q45 0 65.5 -24.5t20.5 -59.5q0 -53 -30.5 -86t-79.5 -33q-43 0 -64.5 24.5t-21.5 59.5z" />
<glyph unicode="k" horiz-adv-x="1050" d="M109 0l266 1509q33 6 80 10.5t82 4.5l-166 -942h8l528 501q39 -2 89.5 -10t78.5 -18l-444 -416q39 -82 71.5 -153.5t63.5 -145.5t63.5 -155t69.5 -177q-31 -8 -75 -12t-85 -4l-227 534l-180 -170l-64 -356h-159z" />
<glyph unicode="l" horiz-adv-x="573" d="M109 0l266 1509q33 6 80 10.5t82 4.5l-269 -1524h-159z" />
<glyph unicode="m" horiz-adv-x="1744" d="M109 0l186 1061q33 6 80 9t82 3l-19 -96h8q86 70 159 91.5t151 21.5q76 0 136 -32t83 -110q96 84 181 113t171 29q53 0 101.5 -13.5t84 -43t57 -75.5t21.5 -114q0 -20 -2 -43t-6 -41l-133 -760h-160l135 764q2 10 2 22v23q0 61 -35.5 98t-119.5 37q-78 0 -138.5 -24.5 t-125.5 -71.5l-150 -848h-160l136 764q2 10 3 24.5t1 24.5q0 131 -152 131q-68 0 -136.5 -24.5t-131.5 -71.5l-150 -848h-159z" />
<glyph unicode="n" horiz-adv-x="1196" d="M109 0l186 1061q33 6 80 9t82 3l-19 -96h8q86 68 162 90.5t158 22.5q53 0 103.5 -13.5t89 -43t61 -76.5t22.5 -117q0 -18 -2 -41t-6 -39l-133 -760h-158l134 764q2 10 3 21.5t1 23.5q0 66 -42 100.5t-128 34.5t-156 -23.5t-137 -72.5l-150 -848h-159z" />
<glyph unicode="o" horiz-adv-x="1161" d="M117 395q0 39 2 77t10 85q49 276 182 404.5t332 128.5q86 0 158.5 -24t127 -74t85 -129.5t30.5 -192.5q0 -37 -2 -75t-10 -81q-49 -279 -184 -406.5t-332 -127.5q-178 0 -288.5 101t-110.5 314zM285 383q0 -143 65.5 -203.5t171.5 -60.5q68 0 121 20.5t95 67.5t74 126 t52 197q8 41 10.5 76t2.5 70q0 76 -17.5 128t-49.5 85t-76 47t-97 14q-61 0 -113.5 -17.5t-96.5 -63.5t-77 -125.5t-53 -202.5q-8 -47 -10 -85t-2 -73z" />
<glyph unicode="p" horiz-adv-x="1169" d="M33 -422l262 1483q33 6 80 9t82 3l-17 -86h11q68 55 133 79t137 24q154 0 244 -103t90 -287q0 -47 -4 -90t-11 -88q-41 -276 -176 -409t-352 -133q-53 0 -120.5 10t-121.5 33l-77 -445h-160zM297 168q45 -23 107.5 -35t115.5 -12q135 0 225.5 91t124.5 302q6 37 12.5 88 t6.5 94q0 250 -223 250q-63 0 -126 -21.5t-122 -68.5z" />
<glyph unicode="q" horiz-adv-x="1173" d="M117 369q0 72 9 146.5t32 150.5q63 217 187 320.5t323 103.5q41 0 89 -5.5t98 -15.5t100.5 -26.5t95.5 -38.5l-252 -1426h-158l90 504h-10q-115 -102 -270 -102q-150 0 -242 99t-92 290zM283 377q0 -254 221 -254q66 0 128 19.5t120 64.5l122 696q-47 23 -109.5 33 t-107.5 10q-57 0 -109 -14t-97 -52t-80 -102.5t-58 -167.5q-12 -53 -21 -117.5t-9 -115.5z" />
<glyph unicode="r" horiz-adv-x="765" d="M109 0l186 1061q33 6 80 9t82 3l-23 -123h8q43 47 82 75t74 42t65.5 18.5t55.5 4.5q18 0 43 -2.5t41 -8.5q-8 -82 -37 -161q-37 10 -92 10q-53 0 -121 -22.5t-143 -96.5l-142 -809h-159z" />
<glyph unicode="s" horiz-adv-x="911" d="M37 45q8 37 20.5 78t28.5 65q55 -31 134 -47t149 -16q217 0 217 164q0 51 -31 86t-78 62.5t-101 54t-101.5 61.5t-78 86t-30.5 127q0 143 111.5 233.5t310.5 90.5q49 0 117.5 -7.5t125.5 -23.5q-6 -70 -32 -148q-53 18 -122 27.5t-134 9.5q-96 0 -154.5 -33.5 t-58.5 -128.5q0 -49 30.5 -81.5t77.5 -60.5t101.5 -54.5t101.5 -64.5t78 -90t31 -130q0 -80 -31 -140.5t-85 -102.5t-130 -62t-166 -20q-76 0 -161 16t-140 49z" />
<glyph unicode="t" horiz-adv-x="782" d="M168 932l25 137h129l43 234q33 10 81 18t82 8l-47 -260h267q-4 -33 -13.5 -69.5t-19.5 -67.5h-258l-113 -631q-2 -16 -3 -33.5t-1 -29.5q0 -59 28.5 -86t96.5 -27q37 0 80 9t78 24q6 -33 6 -74q0 -18 -1 -37.5t-3 -34.5q-45 -18 -100.5 -25t-90.5 -7q-135 0 -194.5 60 t-59.5 173q0 45 10 102l107 617h-129z" />
<glyph unicode="u" horiz-adv-x="1189" d="M147 231q0 18 2.5 40t6.5 40l133 752q33 4 80 8t82 4l-138 -768q-2 -10 -3 -21.5t-1 -21.5q0 -66 41 -102.5t133 -36.5q145 0 283 90l149 848q33 4 80 8t82 4l-190 -1075h-160l16 92h-8q-78 -63 -152.5 -87.5t-156.5 -24.5q-53 0 -103.5 14t-89 44t-62.5 78t-24 115z" />
<glyph unicode="v" horiz-adv-x="1019" d="M152 1061q31 6 73.5 9t77.5 3l125 -788q4 -23 6 -54.5t2 -70.5h10q20 68 52 129l399 784q37 0 81 -3t75 -9q-129 -274 -267.5 -535.5t-289.5 -525.5h-168q-53 248 -100.5 524.5t-75.5 536.5z" />
<glyph unicode="w" horiz-adv-x="1597" d="M199 1061q31 8 71.5 10t73.5 2l37 -743q2 -23 2 -68v-90h8q23 78 58 147l368 750h152l110 -752q4 -31 7.5 -70.5t3.5 -74.5h8q20 80 49 150l301 751q29 0 73.5 -2t75.5 -10q-98 -274 -210.5 -535.5t-241.5 -525.5h-160l-115 743q-4 16 -4 39v49v58h-8q-10 -35 -23.5 -75 t-29.5 -69l-375 -745h-160q-23 158 -36 323.5t-23 340.5q-4 100 -8 199.5t-4 197.5z" />
<glyph unicode="x" horiz-adv-x="1032" d="M-29 8l449 559l-246 494q41 8 87 11t87 3l158 -348q8 -16 13 -38.5t9 -47.5h9q10 25 24 47.5t29 40.5l270 346q39 0 90 -3t88 -11l-424 -516l260 -537q-39 -8 -87 -12t-87 -4l-174 387q-8 18 -11 37.5t-7 42.5h-10q-23 -47 -52 -82l-299 -385q-39 0 -92 4t-84 12z" />
<glyph unicode="y" horiz-adv-x="1034" d="M-127 -403q10 39 21.5 76.5t27.5 66.5q29 -16 69 -22.5t83 -6.5q57 0 107 30t102 114l90 149q-27 115 -54.5 246t-51 267t-43 274.5t-31.5 269.5q33 8 74.5 11t76.5 3l119 -786q4 -29 7 -59.5t3 -65.5h10q23 68 52 127l399 784q33 0 80 -3t80 -11l-557 -1063 q-68 -131 -127.5 -216t-115.5 -135t-115.5 -69.5t-131.5 -19.5q-37 0 -84 8t-90 31z" />
<glyph unicode="z" horiz-adv-x="960" d="M0 0l6 137l715 795h-524q0 37 3 71.5t13 65.5h715l-4 -131l-723 -801h579q0 -35 -3 -68.5t-11 -68.5h-766z" />
<glyph unicode="{" horiz-adv-x="671" d="M-10 -119q0 74 49 146.5t109.5 138t109.5 125t49 104.5q0 57 -48 82t-177 25l27 149q78 0 130 10.5t82.5 29t44 43t13.5 52.5q0 51 -23.5 106.5t-51.5 112t-51.5 115t-23.5 113.5q0 150 123 212t355 71q6 -35 8 -75t2 -69q-170 -6 -248 -31.5t-78 -107.5 q0 -43 22.5 -97.5t50.5 -111.5t50.5 -115.5t22.5 -111.5q0 -82 -53.5 -136.5t-182.5 -78.5v-11q96 -20 132 -63t36 -107q0 -63 -48 -129.5t-106.5 -132t-106.5 -128t-48 -117.5q0 -31 12 -51.5t43 -35t83 -22.5t132 -10q-2 -29 -10 -72t-23 -72q-115 8 -192.5 25.5 t-125.5 48.5t-68.5 74t-20.5 102z" />
<glyph unicode="|" horiz-adv-x="532" d="M31 -422l338 1921h131l-338 -1921h-131z" />
<glyph unicode="}" horiz-adv-x="671" d="M-53 -225q172 6 248.5 31.5t76.5 107.5q0 43 -22.5 97.5t-50 111.5t-50 116.5t-22.5 110.5q0 82 54.5 136.5t183.5 78.5v10q-96 20 -133 63.5t-37 106.5q0 43 23.5 87.5t57 88.5t74.5 88t75 86t57.5 82t23.5 76q0 31 -12.5 51.5t-43 35t-83 22.5t-134.5 10q4 29 12.5 72 t20.5 72q117 -8 195 -25.5t125 -48.5t67.5 -74t20.5 -102q0 -74 -49.5 -146.5t-108.5 -138.5t-108.5 -124t-49.5 -105q0 -57 47.5 -82t176.5 -25l-25 -149q-80 0 -132 -10.5t-83 -29t-44 -43t-13 -53.5q0 -51 23.5 -106t52 -111.5t52 -115t23.5 -113.5q0 -150 -123 -212 t-354 -71q-8 35 -10 75t-2 69z" />
<glyph unicode="~" horiz-adv-x="1007" d="M33 416q35 94 67.5 154.5t67.5 96t71.5 49t75.5 13.5q53 0 105.5 -30.5t101.5 -67.5t94.5 -68t81.5 -31q45 0 77 43t69 154q27 0 69.5 -8t61.5 -21q-33 -92 -65.5 -151.5t-67.5 -94t-72 -49t-78 -14.5q-53 0 -106.5 31t-102.5 67.5t-94 67.5t-82 31q-45 0 -74.5 -44 t-66.5 -155q-27 0 -67.5 8.5t-65.5 18.5z" />
<glyph unicode="&#xa1;" horiz-adv-x="499" d="M23 -287q43 248 93 503t103 491q29 6 60.5 9t62.5 5q-31 -242 -70 -501t-84 -507h-165zM238 999q0 55 30.5 86t75.5 31q88 0 88 -82q0 -57 -31.5 -86.5t-76.5 -29.5q-86 -1 -86 81z" />
<glyph unicode="&#xa2;" d="M117 567q0 33 2 66t8 67q25 143 77 242.5t123.5 162t157.5 92.5t179 36l20 147h154l-35 -147q57 -4 107 -14.5t91 -26.5q-8 -37 -21 -76t-30 -72q-49 23 -119.5 33t-130.5 10q-68 0 -132 -16t-119.5 -57t-95.5 -113t-58 -180q-12 -80 -12 -141q0 -82 22.5 -138.5 t62.5 -90.5t96 -49t124 -15q63 0 137 15t127 42q8 -31 12 -75t4 -72q-47 -27 -122.5 -41.5t-135.5 -14.5l-16 -141h-154l33 143q-174 27 -265 132.5t-91 291.5z" />
<glyph unicode="&#xa3;" d="M57 0l23 131q123 35 178 115t55 196q0 51 -11 108.5t-28 121.5h-168l23 119h115q-6 47 -9.5 82.5t-3.5 76.5q0 104 35 188.5t97.5 142.5t150.5 89t195 31q78 0 157.5 -6t139.5 -23q-2 -33 -11.5 -76t-21.5 -73q-25 8 -59.5 14t-72.5 10t-77 6t-72 2q-147 0 -224 -77.5 t-77 -225.5q0 -41 3 -77.5t16 -83.5h479q-2 -29 -10.5 -61t-20.5 -58h-416q16 -59 25.5 -116.5t9.5 -104.5q0 -102 -39 -179t-123 -129h568q-4 -33 -12.5 -70.5t-22.5 -72.5h-791z" />
<glyph unicode="&#xa4;" d="M49 475l21 115h120q6 53 16.5 112.5t20.5 110.5h-118l18 115h129q43 137 100.5 228t127 145.5t150.5 77t169 22.5q61 0 134 -10.5t116 -30.5q-8 -76 -37 -154q-43 23 -107.5 34t-122.5 11q-63 0 -115.5 -14t-96.5 -51t-79.5 -99.5t-66.5 -158.5h479q-2 -23 -10 -55.5 t-20 -59.5h-480q-12 -49 -23.5 -109.5t-17.5 -113.5h455q-2 -25 -9 -56.5t-20 -58.5h-434v-45q0 -156 59.5 -228.5t188.5 -72.5q66 0 134.5 14.5t127.5 42.5q2 -20 3 -39.5t1 -42.5q0 -18 -1 -37.5t-3 -37.5q-59 -25 -137 -37t-143 -12q-193 0 -293.5 110.5t-100.5 343.5v41 h-135z" />
<glyph unicode="&#xa5;" d="M113 483l20 123h260q-63 182 -114.5 369.5t-98.5 396.5q41 8 86 11t82 3l154 -610q6 -25 12 -57.5t10 -61.5h11q14 29 29.5 63t31.5 60l371 606q39 0 85 -3t83 -11q-66 -111 -124.5 -208t-116.5 -189t-118.5 -182.5t-128.5 -186.5h258q-10 -59 -37 -123h-284l-84 -483 h-172l84 483h-299z" />
<glyph unicode="&#xa6;" horiz-adv-x="552" d="M104 0l101 567h131l-100 -567h-132zM250 821l98 559h131l-98 -559h-131z" />
<glyph unicode="&#xa7;" d="M72 -256q4 37 14 74t23 65q117 -35 251 -35q100 0 164 40t64 120q0 53 -37 87t-92.5 60.5t-121 52t-120.5 62.5t-92 93.5t-37 142.5q0 90 60.5 175t205.5 153q27 -16 48.5 -44t37.5 -59q-109 -41 -153.5 -96t-44.5 -117q0 -61 36.5 -99t92 -66.5t120 -53.5t120 -59.5 t92 -86t36.5 -130.5q0 -70 -30.5 -126.5t-85 -96.5t-129 -62.5t-164.5 -22.5q-25 0 -56.5 2t-67.5 5.5t-71 9.5t-63 12zM287 1094q0 70 30.5 126t85 96t130 62.5t163.5 22.5q25 0 57.5 -2t67.5 -5t70 -9.5t63 -12.5q-4 -37 -14 -73.5t-20 -65.5q-121 35 -254 35 q-100 0 -163 -40t-63 -120q0 -53 37 -87t92.5 -60.5t120 -52t119.5 -62.5t92 -93.5t37 -142.5q0 -90 -60.5 -175t-205.5 -152q-27 16 -48.5 43.5t-37.5 58.5q111 41 155.5 96.5t44.5 116.5t-36.5 100t-92 67t-121 53.5t-121 59t-92 85t-36.5 131.5z" />
<glyph unicode="&#xa8;" d="M233 1280q0 57 32 87t77 30q84 0 84 -82q0 -55 -30.5 -85t-76.5 -30q-41 0 -63.5 21.5t-22.5 58.5zM596 1280q0 57 31.5 87t74.5 30q84 0 84 -82q0 -55 -30.5 -85t-73.5 -30q-41 0 -63.5 21.5t-22.5 58.5z" />
<glyph unicode="&#xa9;" horiz-adv-x="1484" d="M131 563q0 164 51 304.5t143.5 243.5t222.5 162.5t286 59.5q117 0 215 -35.5t167.5 -103.5t108.5 -164t39 -217q0 -168 -52 -308t-146.5 -242.5t-224.5 -160t-286 -57.5q-119 0 -216 36t-165.5 103.5t-105.5 163.5t-37 215zM209 565q0 -100 29.5 -182t87 -141.5 t141.5 -92t192 -32.5q137 0 252 52t197 145.5t127 220t45 276.5q0 102 -31.5 185t-91 141.5t-142.5 90.5t-188 32q-137 0 -250.5 -53.5t-195.5 -146.5t-127 -220t-45 -275zM414 590q0 25 3 52.5t7 55.5q18 104 56 178t91.5 119t119 65.5t138.5 20.5q53 0 114 -10t91 -27 q-4 -23 -11 -56.5t-17 -55.5q-39 18 -88.5 27.5t-98.5 9.5q-51 0 -93 -14.5t-76 -47.5t-57.5 -88t-37.5 -137q-4 -29 -7 -53.5t-3 -46.5q0 -100 47 -145.5t139 -45.5q47 0 99.5 11.5t93.5 33.5q4 -14 6 -30.5t4 -34.5q2 -12 2 -25v-22q-47 -23 -106.5 -32t-112.5 -9 q-143 0 -223 79.5t-80 227.5z" />
<glyph unicode="&#xaa;" horiz-adv-x="778" d="M123 856q0 115 68.5 164t183.5 53l174 6l26 162q-23 12 -64.5 19.5t-80.5 7.5q-41 0 -86 -6.5t-74 -16.5q-4 14 -6 30.5t-2 33.5q0 12 1 25.5t3 23.5q35 10 81 16t95 6q70 0 142.5 -16t122.5 -49l-82 -461q-2 -10 -2 -18q0 -31 39 -31h53l-6 -39q-8 -43 -31 -61.5 t-62 -18.5t-66.5 17.5t-39.5 58.5h-6q-51 -41 -100.5 -58.5t-100.5 -17.5q-84 0 -132 40t-48 130zM248 864q0 -43 22.5 -61.5t71.5 -18.5q39 0 84 13.5t80 40.5l29 157l-158 -6q-70 -4 -99.5 -36.5t-29.5 -88.5z" />
<glyph unicode="&#xab;" horiz-adv-x="972" d="M51 547l361 442l129 -28l-328 -424l174 -422l-127 -27zM481 547l361 442l127 -28l-326 -424l174 -422l-129 -27z" />
<glyph unicode="&#xac;" horiz-adv-x="1019" d="M68 614l22 134h856l-80 -463q-35 -6 -69.5 -9.5t-65.5 -3.5l62 342h-725z" />
<glyph unicode="&#xad;" horiz-adv-x="512" d="M61 545l25 139h375l-25 -139h-375z" />
<glyph unicode="&#xae;" horiz-adv-x="1484" d="M131 563q0 164 51 304.5t143.5 243.5t222.5 162.5t288 59.5q117 0 214 -35.5t166.5 -103.5t108.5 -164t39 -215q0 -168 -52 -309t-145.5 -243.5t-223.5 -160t-286 -57.5q-119 0 -216 37t-166.5 104.5t-106.5 162.5t-37 214zM209 567q0 -100 29.5 -183t87 -142.5 t142.5 -92t194 -32.5q137 0 250.5 52t195.5 145.5t128 220t46 276.5q0 104 -31.5 187t-91 141.5t-143.5 89.5t-187 31q-137 0 -251.5 -53.5t-196.5 -146.5t-127 -219t-45 -274zM438 295l137 768q66 8 117 11t105 3q96 0 162.5 -45.5t66.5 -154.5q0 -94 -53 -154.5 t-139 -77.5q29 -29 54 -73t44 -103l55 -166q-29 -6 -60.5 -8t-62.5 -4l-37 121q-25 76 -48 121t-46 71h-123l-53 -309h-119zM629 702h96q80 0 130 41t50 127q0 59 -34.5 84t-94.5 25q-47 0 -100 -6z" />
<glyph unicode="&#xaf;" d="M248 1235l20 129h516q-4 -29 -14 -64.5t-22 -64.5h-500z" />
<glyph unicode="&#xb0;" horiz-adv-x="643" d="M137 1081v27q0 14 4 31q23 121 102 181t189 60q102 0 159.5 -58t57.5 -151q0 -26 -6 -57q-23 -117 -100.5 -180.5t-188.5 -63.5q-104 0 -160.5 58.5t-56.5 152.5zM242 1083q0 -57 31.5 -89.5t91.5 -32.5q78 0 121 45.5t57 121.5q2 10 2 19v18q0 59 -33 94t-90 35 q-76 0 -120 -47t-56 -119q-4 -10 -4 -22v-23z" />
<glyph unicode="&#xb1;" horiz-adv-x="919" d="M45 92l23 119h655l-21 -119h-657zM143 645l21 117h266l47 262h121l-49 -262h270l-20 -117h-269l-49 -270h-119l48 270h-267z" />
<glyph unicode="&#xb2;" horiz-adv-x="694" d="M63 588l13 102q143 92 232 162t139.5 123t67.5 96t17 84q0 63 -41.5 92t-115.5 29q-49 0 -94 -9.5t-78 -25.5q-6 31 -6 66v26q0 16 2 29q49 18 95 25.5t97 7.5q57 0 107.5 -14.5t88.5 -43t59.5 -70t21.5 -96.5q0 -61 -21.5 -114t-68 -107.5t-121 -114t-181.5 -133.5h353 q-4 -27 -11.5 -57.5t-17.5 -56.5h-537z" />
<glyph unicode="&#xb3;" horiz-adv-x="694" d="M70 608q4 29 12 65t18 54q82 -39 185 -39q43 0 83 5t68.5 20.5t46 43t17.5 72.5q0 66 -38 88.5t-116 22.5h-135l18 111h125q92 0 141.5 25.5t49.5 97.5q0 57 -36 81.5t-112 24.5q-49 0 -93 -8t-83 -23q-4 16 -6 39t-2 45v17q0 8 2 18q47 16 100.5 21.5t106.5 5.5 q111 0 182.5 -47.5t71.5 -149.5q0 -76 -43 -127t-123 -70v-8q55 -16 88 -56t33 -108q0 -70 -29 -117.5t-77 -78.5t-110.5 -45.5t-131.5 -14.5q-51 0 -111.5 9.5t-101.5 25.5z" />
<glyph unicode="&#xb4;" d="M322 1184l208 313h168q-41 -80 -107.5 -166t-144.5 -160q-29 0 -64.5 3.5t-59.5 9.5z" />
<glyph unicode="&#xb6;" d="M111 823q0 57 12 119q25 133 81 221t134 141.5t171 75t189 21.5q86 0 167 -10.5t159 -34.5l-197 -1102q-16 -94 -43.5 -171t-71.5 -141.5t-107.5 -119.5t-153.5 -107l-56 88q80 45 135.5 93.5t92 103.5t58 116.5t34.5 135.5l180 1018q-12 4 -32.5 7t-44 6t-47 5t-42.5 2 l-182 -1038q-10 -61 -26.5 -108.5t-42 -85.5t-62.5 -70.5t-92 -63.5l-56 92q41 23 69 45.5t46 50t29.5 60.5t19.5 76l41 223h-35q-70 0 -130 22.5t-104 66.5t-68.5 110.5t-24.5 152.5z" />
<glyph unicode="&#xb7;" horiz-adv-x="432" d="M121 563q0 57 31.5 87t76.5 30q84 0 84 -82q0 -57 -30.5 -87t-75.5 -30q-86 0 -86 82z" />
<glyph unicode="&#xb8;" d="M326 -383q0 35 6 64q29 -10 63.5 -13.5t59.5 -3.5q59 0 108 20.5t49 79.5q0 49 -29.5 67.5t-86.5 18.5q-18 0 -41 -2t-43 -6q4 25 14 50.5t20 44.5h101q98 0 147 -42t49 -120q0 -111 -77.5 -165t-212.5 -54q-27 0 -62 4t-63 10q-2 10 -2 22v25z" />
<glyph unicode="&#xb9;" horiz-adv-x="694" d="M59 588l21 114h274l99 562l-265 -39q0 23 3.5 54.5t7.5 53.5l284 47h113l-119 -678h191q-4 -25 -12.5 -58.5t-18.5 -55.5h-578z" />
<glyph unicode="&#xba;" horiz-adv-x="778" d="M152 952q0 47 8 95q29 176 120 254.5t222 78.5q57 0 106 -15t86 -47t57.5 -82t20.5 -122q0 -23 -2 -45t-6 -47q-33 -186 -123 -261t-219 -75q-123 0 -196.5 65.5t-73.5 200.5zM283 950q0 -86 37.5 -122.5t105.5 -36.5q84 0 134 52t73 185q4 29 6 47t2 41q0 88 -40 124 t-105 36q-37 0 -71 -10.5t-60.5 -37t-46 -72.5t-29.5 -118q-6 -49 -6 -88z" />
<glyph unicode="&#xbb;" horiz-adv-x="972" d="M2 117l326 424l-174 422l129 26l206 -459l-360 -442zM430 117l328 424l-174 422l127 26l209 -459l-361 -442z" />
<glyph unicode="&#xbc;" horiz-adv-x="1689" d="M59 588l21 114h274l99 562l-265 -39q0 23 3.5 54.5t7.5 53.5l284 47h113l-119 -678h191q-4 -25 -12.5 -58.5t-18.5 -55.5h-578zM420 18l799 1383q25 -2 54.5 -8.5t51.5 -16.5l-805 -1392q-31 4 -54.5 13t-45.5 21zM885 172l18 115q51 68 106.5 139.5t112 139t110.5 130 t101 111.5q10 0 25.5 -2t33 -5t32 -6t22.5 -8l-420 -507h274l31 178h115l-31 -176h115q-4 -23 -12.5 -54.5t-18.5 -54.5h-104l-29 -172h-117l31 172h-395z" />
<glyph unicode="&#xbd;" horiz-adv-x="1689" d="M59 588l21 114h274l99 562l-265 -39q0 23 3.5 54.5t7.5 53.5l284 47h113l-119 -678h191q-4 -25 -12.5 -58.5t-18.5 -55.5h-578zM420 18l799 1383q25 -2 54.5 -8.5t51.5 -16.5l-805 -1392q-31 4 -54.5 13t-45.5 21zM936 0l12 102q143 92 232.5 162t139.5 123t67.5 96 t17.5 84q0 63 -42 92t-116 29q-49 0 -94 -9t-78 -26q-6 31 -6 66v26q0 16 4 29q47 18 94 25.5t97 7.5q57 0 107 -14.5t88 -43t59.5 -69.5t21.5 -96q0 -61 -21.5 -114.5t-67.5 -108t-121 -114t-181 -132.5h352q-4 -27 -11 -57.5t-17 -57.5h-537z" />
<glyph unicode="&#xbe;" horiz-adv-x="1689" d="M70 608q4 29 12 65t18 54q82 -39 185 -39q43 0 83 5t68.5 20.5t46 43t17.5 72.5q0 66 -38 88.5t-116 22.5h-135l18 111h125q92 0 141.5 25.5t49.5 97.5q0 57 -36 81.5t-112 24.5q-49 0 -93 -8t-83 -23q-4 16 -6 39t-2 45v17q0 8 2 18q47 16 100.5 21.5t106.5 5.5 q111 0 182.5 -47.5t71.5 -149.5q0 -76 -43 -127t-123 -70v-8q55 -16 88 -56t33 -108q0 -70 -29 -117.5t-77 -78.5t-110.5 -45.5t-131.5 -14.5q-51 0 -111.5 9.5t-101.5 25.5zM420 18l799 1383q25 -2 54.5 -8.5t51.5 -16.5l-805 -1392q-31 4 -54.5 13t-45.5 21zM885 172 l18 115q51 68 106.5 139.5t112 139t110.5 130t101 111.5q10 0 25.5 -2t33 -5t32 -6t22.5 -8l-420 -507h274l31 178h115l-31 -176h115q-4 -23 -12.5 -54.5t-18.5 -54.5h-104l-29 -172h-117l31 172h-395z" />
<glyph unicode="&#xbf;" horiz-adv-x="753" d="M-47 10q0 84 26.5 155t86 130t152.5 108.5t226 92.5l37 213q33 6 69 10t66 6q-2 -68 -9 -158t-19 -161q-115 -31 -204 -66t-149.5 -79t-91 -100.5t-30.5 -127.5q0 -98 63.5 -146.5t177.5 -48.5q57 0 108.5 6t98.5 17q6 -16 9 -42t3 -50q0 -12 -1 -26.5t-3 -27.5 q-109 -23 -241 -22q-78 0 -146.5 19.5t-119 58.5t-80 98t-29.5 141zM489 1001q0 55 31 85t76 30q41 0 63.5 -21.5t22.5 -58.5q0 -57 -30.5 -86.5t-78.5 -29.5q-84 -1 -84 81z" />
<glyph unicode="&#xc0;" horiz-adv-x="1163" d="M-49 12q160 334 338 678t366 690h179q61 -336 117.5 -685t103.5 -683q-39 -12 -80 -16t-82 -6l-70 440h-491l-221 -440q-37 2 -81 7t-79 15zM399 571h406l-86 553q-2 10 -2 17v16v23q0 14 2 37h-12q-4 -31 -12.5 -55.5t-14.5 -37.5zM543 1669h162l112 -211 q-33 -6 -65.5 -9t-67.5 -5q-55 59 -89 111.5t-52 113.5z" />
<glyph unicode="&#xc1;" horiz-adv-x="1163" d="M-49 12q160 334 338 678t366 690h179q61 -336 117.5 -685t103.5 -683q-39 -12 -80 -16t-82 -6l-70 440h-491l-221 -440q-37 2 -81 7t-79 15zM399 571h406l-86 553q-2 10 -2 17v16v23q0 14 2 37h-12q-4 -31 -12.5 -55.5t-14.5 -37.5zM672 1458l176 211h174 q-41 -61 -88 -113.5t-125 -111.5q-35 2 -71 5t-66 9z" />
<glyph unicode="&#xc2;" horiz-adv-x="1163" d="M-49 12q160 334 338 678t366 690h179q61 -336 117.5 -685t103.5 -683q-39 -12 -80 -16t-82 -6l-70 440h-491l-221 -440q-37 2 -81 7t-79 15zM399 571h406l-86 553q-2 10 -2 17v16v23q0 14 2 37h-12q-4 -31 -12.5 -55.5t-14.5 -37.5zM449 1454q35 37 60.5 65.5t50 53 t49 48.5t53.5 48h219q41 -53 71.5 -101.5t65.5 -111.5q-29 -6 -62.5 -9t-66.5 -3l-125 158l-178 -158q-29 0 -70 3t-67 7z" />
<glyph unicode="&#xc3;" horiz-adv-x="1163" d="M-49 12q160 334 338 678t366 690h179q61 -336 117.5 -685t103.5 -683q-39 -12 -80 -16t-82 -6l-70 440h-491l-221 -440q-37 2 -81 7t-79 15zM395 1462q20 63 44 102.5t49.5 61t54 28.5t61.5 7q35 0 71 -14.5t69.5 -33t65.5 -32.5t56 -14q18 0 32.5 3t27 14t22.5 33.5 t23 59.5q25 -2 56.5 -8t51.5 -14q-20 -63 -43.5 -103.5t-49 -62t-54.5 -28.5t-62 -7q-37 0 -73.5 14.5t-70.5 33t-65.5 32.5t-56.5 14q-37 0 -61.5 -21.5t-42.5 -86.5q-23 0 -52.5 6t-52.5 16zM399 571h406l-86 553q-2 10 -2 17v16v23q0 14 2 37h-12q-4 -31 -12.5 -55.5 t-14.5 -37.5z" />
<glyph unicode="&#xc4;" horiz-adv-x="1163" d="M-49 12q160 334 338 678t366 690h179q61 -336 117.5 -685t103.5 -683q-39 -12 -80 -16t-82 -6l-70 440h-491l-221 -440q-37 2 -81 7t-79 15zM399 571h406l-86 553q-2 10 -2 17v16v23q0 14 2 37h-12q-4 -31 -12.5 -55.5t-14.5 -37.5zM479 1532q0 49 31 76.5t72 27.5 q82 1 82 -71q0 -49 -30 -76t-71 -27q-84 0 -84 70zM842 1532q0 49 30.5 76.5t73.5 27.5q37 0 59.5 -18t22.5 -53q0 -49 -30.5 -76t-71.5 -27q-84 0 -84 70z" />
<glyph unicode="&#xc5;" horiz-adv-x="1163" d="M-49 12q156 328 331 666t361 680q-55 18 -83 59t-28 99q0 100 72 158.5t189 58.5q98 0 148 -44t50 -118q0 -78 -41 -132.5t-112 -76.5q61 -332 115.5 -676t101.5 -674q-39 -12 -80 -16t-82 -6l-70 440h-491l-221 -440q-35 2 -80 7t-80 15zM399 571h406l-86 553 q-2 10 -2 17v16v27q0 10 2 33h-12q-4 -31 -12.5 -55.5t-14.5 -37.5zM649 1518q0 -84 92 -84q55 0 92 32.5t37 98.5q0 39 -24.5 60.5t-65.5 21.5q-55 0 -93 -32t-38 -97z" />
<glyph unicode="&#xc6;" horiz-adv-x="1675" d="M-154 12q123 188 241 360.5t236.5 338.5t241.5 330.5t256 338.5h852q-4 -35 -15 -76.5t-22 -74.5h-575l-76 -430h438l-26 -152h-439l-86 -495h617q-4 -35 -13.5 -75t-23.5 -77h-778l84 471h-406l-340 -483q-37 2 -84 8t-82 16zM444 614h338l111 623h-12z" />
<glyph unicode="&#xc7;" horiz-adv-x="1175" d="M135 492q0 53 4 107t15 114q25 145 69 258q82 217 233.5 323.5t366.5 106.5q45 0 95.5 -5t98.5 -14.5t91 -22t74 -28.5q-10 -37 -22.5 -78t-29.5 -79q-61 35 -153 54t-172 19q-145 0 -244.5 -69.5t-159.5 -227.5q-45 -115 -69 -282q-8 -51 -12.5 -98.5t-4.5 -90.5 q0 -184 82 -265t250 -81q86 0 174 19.5t164 60.5q4 -23 6 -45.5t4 -46.5q2 -18 3 -36.5t1 -37.5q-39 -18 -87 -30.5t-97 -20.5t-96 -12t-84 -4q-240 0 -370 123.5t-130 388.5zM330 -383q0 35 6 64q29 -10 63.5 -13.5t59.5 -3.5q59 0 108 20.5t49 79.5q0 49 -29.5 67.5 t-86.5 18.5q-18 0 -41 -2t-43 -6q4 25 14 50.5t21 44.5h100q98 0 147.5 -42t49.5 -120q0 -111 -78 -165t-213 -54q-27 0 -62 4t-63 10q-2 10 -2 22v25z" />
<glyph unicode="&#xc8;" horiz-adv-x="1116" d="M113 0l243 1380h758q-6 -39 -15 -77.5t-24 -73.5h-573l-78 -430h438l-24 -152h-439l-88 -495h619q-4 -35 -13.5 -75t-23.5 -77h-780zM514 1669h162l112 -211q-33 -6 -65.5 -9t-67.5 -5q-55 59 -89 111.5t-52 113.5z" />
<glyph unicode="&#xc9;" horiz-adv-x="1116" d="M113 0l243 1380h758q-6 -39 -15 -77.5t-24 -73.5h-573l-78 -430h438l-24 -152h-439l-88 -495h619q-4 -35 -13.5 -75t-23.5 -77h-780zM569 1458l176 211h175q-41 -61 -88.5 -113.5t-124.5 -111.5q-35 2 -71 5t-67 9z" />
<glyph unicode="&#xca;" horiz-adv-x="1116" d="M113 0l243 1380h758q-6 -39 -15 -77.5t-24 -73.5h-573l-78 -430h438l-24 -152h-439l-88 -495h619q-4 -35 -13.5 -75t-23.5 -77h-780zM438 1454q35 37 60.5 65.5t50 53t49.5 48.5t53 48h219q41 -53 72 -101.5t66 -111.5q-29 -6 -63 -9t-66 -3l-125 158l-179 -158 q-29 0 -69.5 3t-67.5 7z" />
<glyph unicode="&#xcb;" horiz-adv-x="1116" d="M113 0l243 1380h758q-6 -39 -15 -77.5t-24 -73.5h-573l-78 -430h438l-24 -152h-439l-88 -495h619q-4 -35 -13.5 -75t-23.5 -77h-780zM455 1532q0 49 30.5 76.5t71.5 27.5q82 1 82 -71q0 -49 -29.5 -76t-70.5 -27q-84 0 -84 70zM817 1532q0 49 31 76.5t74 27.5 q37 0 59.5 -18t22.5 -53q0 -49 -31 -76t-72 -27q-84 0 -84 70z" />
<glyph unicode="&#xcc;" horiz-adv-x="593" d="M113 0l243 1380h172l-243 -1380h-172zM248 1669h162l112 -211q-33 -6 -65.5 -9t-67.5 -5q-55 59 -89 111.5t-52 113.5z" />
<glyph unicode="&#xcd;" horiz-adv-x="593" d="M113 0l243 1380h172l-243 -1380h-172zM369 1458l176 211h174q-41 -61 -88 -113.5t-125 -111.5q-35 2 -71 5t-66 9z" />
<glyph unicode="&#xce;" horiz-adv-x="593" d="M113 0l243 1380h172l-243 -1380h-172zM168 1450q33 37 58.5 66.5t48 54t46 48t52.5 48.5h213q39 -53 68.5 -101t64.5 -114q-29 -6 -61.5 -9t-63.5 -3l-121 159l-174 -159q-27 0 -66.5 3t-64.5 7z" />
<glyph unicode="&#xcf;" horiz-adv-x="593" d="M113 0l243 1380h172l-243 -1380h-172zM193 1532q0 49 28.5 76.5t69.5 27.5q37 0 58.5 -18t21.5 -53q0 -49 -29 -76t-70 -27q-80 0 -79 70zM543 1532q0 49 30.5 76.5t71.5 27.5q35 0 57.5 -18t22.5 -53q0 -49 -29.5 -76t-70.5 -27q-82 0 -82 70z" />
<glyph unicode="&#xd0;" horiz-adv-x="1396" d="M94 653l27 146h131l100 567q51 6 107.5 12t113 9.5t110.5 5.5t99 2q115 0 211.5 -31t166 -95.5t109.5 -164t40 -238.5q0 -215 -53.5 -379.5t-149.5 -277.5t-230.5 -170t-297.5 -57q-47 0 -105.5 2t-120 5t-123 8t-114.5 13l112 643h-133zM309 145q29 -2 64 -5t71.5 -5 t72.5 -3t67 -1q125 0 226 47t172 139.5t108.5 230.5t37.5 318q0 117 -32.5 190.5t-86 115.5t-121 57.5t-134.5 15.5q-59 0 -120 -3t-132 -9l-78 -434h238q-12 -63 -46 -146h-217z" />
<glyph unicode="&#xd1;" horiz-adv-x="1404" d="M113 0l239 1366q41 10 91.5 14t86.5 4l410 -978q10 -27 20.5 -64t20.5 -80l14 2q2 37 6.5 82t10.5 80l168 954h159l-241 -1374q-35 -8 -79 -12t-79 -4l-432 1038l-37 125l-12 -2q0 -41 -2 -78t-8 -67l-177 -1006h-159zM530 1462q20 63 44 102.5t49.5 61t54.5 28.5t61 7 q35 0 71 -14.5t69.5 -33t65.5 -32.5t56 -14q18 0 33 3t27 14t22.5 33.5t22.5 59.5q25 -2 56.5 -8t51.5 -14q-20 -63 -43.5 -103.5t-49 -62t-54.5 -28.5t-61 -7q-37 0 -74 14.5t-71 33t-65.5 32.5t-56.5 14q-37 0 -61.5 -21.5t-42.5 -86.5q-23 0 -52.5 6t-52.5 16z" />
<glyph unicode="&#xd2;" horiz-adv-x="1361" d="M135 496q0 78 9.5 152.5t29.5 160.5q68 301 225.5 446.5t401.5 145.5q227 0 350 -131t123 -391q0 -98 -15.5 -189.5t-37.5 -177.5q-74 -274 -228.5 -403t-384.5 -129q-225 0 -349 130t-124 386zM315 469q0 -340 308 -340q90 0 157.5 23.5t118.5 77t89 138.5t65 210 q16 78 28.5 160.5t12.5 168.5q0 184 -82 264t-232 80q-88 0 -157.5 -26.5t-121.5 -84t-89 -148.5t-62 -222q-16 -76 -25.5 -149.5t-9.5 -151.5zM631 1669h162l112 -211q-33 -6 -65.5 -9t-67.5 -5q-55 59 -89 111.5t-52 113.5z" />
<glyph unicode="&#xd3;" horiz-adv-x="1361" d="M135 496q0 78 9.5 152.5t29.5 160.5q68 301 225.5 446.5t401.5 145.5q227 0 350 -131t123 -391q0 -98 -15.5 -189.5t-37.5 -177.5q-74 -274 -228.5 -403t-384.5 -129q-225 0 -349 130t-124 386zM315 469q0 -340 308 -340q90 0 157.5 23.5t118.5 77t89 138.5t65 210 q16 78 28.5 160.5t12.5 168.5q0 184 -82 264t-232 80q-88 0 -157.5 -26.5t-121.5 -84t-89 -148.5t-62 -222q-16 -76 -25.5 -149.5t-9.5 -151.5zM705 1458l176 211h174q-41 -61 -88 -113.5t-125 -111.5q-35 2 -71 5t-66 9z" />
<glyph unicode="&#xd4;" horiz-adv-x="1361" d="M135 496q0 78 9.5 152.5t29.5 160.5q68 301 225.5 446.5t401.5 145.5q227 0 350 -131t123 -391q0 -98 -15.5 -189.5t-37.5 -177.5q-74 -274 -228.5 -403t-384.5 -129q-225 0 -349 130t-124 386zM315 469q0 -340 308 -340q90 0 157.5 23.5t118.5 77t89 138.5t65 210 q16 78 28.5 160.5t12.5 168.5q0 184 -82 264t-232 80q-88 0 -157.5 -26.5t-121.5 -84t-89 -148.5t-62 -222q-16 -76 -25.5 -149.5t-9.5 -151.5zM508 1454q35 37 60.5 65.5t50 53t49 48.5t53.5 48h219q41 -53 71.5 -101.5t65.5 -111.5q-29 -6 -62.5 -9t-66.5 -3l-125 158 l-178 -158q-29 0 -69.5 3t-67.5 7z" />
<glyph unicode="&#xd5;" horiz-adv-x="1361" d="M135 496q0 78 9.5 152.5t29.5 160.5q68 301 225.5 446.5t401.5 145.5q227 0 350 -131t123 -391q0 -98 -15.5 -189.5t-37.5 -177.5q-74 -274 -228.5 -403t-384.5 -129q-225 0 -349 130t-124 386zM315 469q0 -340 308 -340q90 0 157.5 23.5t118.5 77t89 138.5t65 210 q16 78 28.5 160.5t12.5 168.5q0 184 -82 264t-232 80q-88 0 -157.5 -26.5t-121.5 -84t-89 -148.5t-62 -222q-16 -76 -25.5 -149.5t-9.5 -151.5zM475 1462q20 63 44 102.5t49.5 61t54 28.5t61.5 7q35 0 71 -14.5t69.5 -33t65.5 -32.5t56 -14q18 0 32.5 3t27 14t22.5 33.5 t23 59.5q25 -2 56.5 -8t51.5 -14q-20 -63 -43.5 -103.5t-49.5 -62t-54.5 -28.5t-61.5 -7q-37 0 -73.5 14.5t-70.5 33t-65.5 32.5t-56.5 14q-37 0 -61.5 -21.5t-42.5 -86.5q-23 0 -52.5 6t-52.5 16z" />
<glyph unicode="&#xd6;" horiz-adv-x="1361" d="M135 496q0 78 9.5 152.5t29.5 160.5q68 301 225.5 446.5t401.5 145.5q227 0 350 -131t123 -391q0 -98 -15.5 -189.5t-37.5 -177.5q-74 -274 -228.5 -403t-384.5 -129q-225 0 -349 130t-124 386zM315 469q0 -340 308 -340q90 0 157.5 23.5t118.5 77t89 138.5t65 210 q16 78 28.5 160.5t12.5 168.5q0 184 -82 264t-232 80q-88 0 -157.5 -26.5t-121.5 -84t-89 -148.5t-62 -222q-16 -76 -25.5 -149.5t-9.5 -151.5zM545 1532q0 49 30.5 76.5t71.5 27.5q82 1 82 -71q0 -49 -29.5 -76t-70.5 -27q-84 0 -84 70zM907 1532q0 49 31 76.5t74 27.5 q37 0 59.5 -18t22.5 -53q0 -49 -31 -76t-72 -27q-84 0 -84 70z" />
<glyph unicode="&#xd7;" horiz-adv-x="1019" d="M35 156l362 315l-252 305l101 86l250 -311l358 311l82 -90l-365 -307l254 -311l-104 -88l-250 315l-358 -315z" />
<glyph unicode="&#xd8;" horiz-adv-x="1361" d="M82 -125l170 240q-119 135 -119 381q0 68 10.5 149.5t30.5 167.5q68 301 225.5 444.5t401.5 143.5q186 0 301 -90l133 188h90l-170 -237q119 -135 119 -383q0 -37 -5 -83t-12.5 -95.5t-17.5 -97.5t-22 -91q-74 -274 -230 -403t-379 -129q-184 0 -301 86l-135 -191h-90z M315 469q0 -125 41 -207l650 914q-41 41 -97.5 58t-128.5 17q-88 0 -156.5 -25.5t-120.5 -82t-89 -147.5t-64 -222q-16 -76 -25.5 -161t-9.5 -144zM403 201q74 -72 220 -72q88 0 155.5 23.5t118.5 77t88 138.5t64 210q8 39 16 83t14 87t10.5 84.5t4.5 74.5q0 127 -43 207z " />
<glyph unicode="&#xd9;" horiz-adv-x="1372" d="M180 373q0 39 7.5 98t17.5 113l139 796h172l-145 -821q-8 -47 -13.5 -97t-5.5 -79q0 -123 63.5 -185.5t213.5 -62.5q82 0 142 20.5t104.5 65.5t73 117t46.5 174l156 868h160l-148 -835q-25 -133 -61.5 -237.5t-98 -177.5t-154.5 -111.5t-231 -38.5q-100 0 -181 20 t-138 67.5t-88 122t-31 183.5zM637 1669h162l112 -211q-33 -6 -65.5 -9t-67.5 -5q-55 59 -89 111.5t-52 113.5z" />
<glyph unicode="&#xda;" horiz-adv-x="1372" d="M180 373q0 39 7.5 98t17.5 113l139 796h172l-145 -821q-8 -47 -13.5 -97t-5.5 -79q0 -123 63.5 -185.5t213.5 -62.5q82 0 142 20.5t104.5 65.5t73 117t46.5 174l156 868h160l-148 -835q-25 -133 -61.5 -237.5t-98 -177.5t-154.5 -111.5t-231 -38.5q-100 0 -181 20 t-138 67.5t-88 122t-31 183.5zM698 1458l176 211h175q-41 -61 -88.5 -113.5t-124.5 -111.5q-35 2 -71 5t-67 9z" />
<glyph unicode="&#xdb;" horiz-adv-x="1372" d="M180 373q0 39 7.5 98t17.5 113l139 796h172l-145 -821q-8 -47 -13.5 -97t-5.5 -79q0 -123 63.5 -185.5t213.5 -62.5q82 0 142 20.5t104.5 65.5t73 117t46.5 174l156 868h160l-148 -835q-25 -133 -61.5 -237.5t-98 -177.5t-154.5 -111.5t-231 -38.5q-100 0 -181 20 t-138 67.5t-88 122t-31 183.5zM555 1454q35 37 60.5 65.5t50 53t49 48.5t53.5 48h219q41 -53 71.5 -101.5t65.5 -111.5q-29 -6 -62.5 -9t-66.5 -3l-125 158l-178 -158q-29 0 -69.5 3t-67.5 7z" />
<glyph unicode="&#xdc;" horiz-adv-x="1372" d="M180 373q0 39 7.5 98t17.5 113l139 796h172l-145 -821q-8 -47 -13.5 -97t-5.5 -79q0 -123 63.5 -185.5t213.5 -62.5q82 0 142 20.5t104.5 65.5t73 117t46.5 174l156 868h160l-148 -835q-25 -133 -61.5 -237.5t-98 -177.5t-154.5 -111.5t-231 -38.5q-100 0 -181 20 t-138 67.5t-88 122t-31 183.5zM573 1532q0 49 31 76.5t72 27.5q82 1 82 -71q0 -49 -30 -76t-71 -27q-84 0 -84 70zM936 1532q0 49 30.5 76.5t73.5 27.5q37 0 59.5 -18t22.5 -53q0 -49 -30.5 -76t-71.5 -27q-84 0 -84 70z" />
<glyph unicode="&#xdd;" horiz-adv-x="1138" d="M217 1370q39 8 87 11t83 3l188 -604q16 -49 23 -102h12q27 55 60 106l401 600q39 0 88 -3t84 -11q-74 -117 -143.5 -223.5t-140 -208.5t-142.5 -203.5t-151 -210.5l-93 -524h-174l93 524q-86 211 -152 423t-123 423zM600 1458l176 211h174q-41 -61 -88 -113.5 t-125 -111.5q-35 2 -70.5 5t-66.5 9z" />
<glyph unicode="&#xde;" horiz-adv-x="1150" d="M113 0l243 1380h170l-43 -245q53 6 96.5 8t96.5 2q90 0 163.5 -20.5t127 -64.5t82 -113t28.5 -165q0 -127 -45 -222t-120.5 -158.5t-176 -95.5t-211.5 -32h-192l-49 -274h-170zM356 416h166q80 0 149.5 20.5t122 64.5t82 112.5t29.5 164.5q0 106 -56 167t-190 61 q-35 0 -87 -2.5t-115 -10.5z" />
<glyph unicode="&#xdf;" horiz-adv-x="1140" d="M109 0l196 1118q39 217 148.5 311.5t294.5 94.5q72 0 133 -17.5t105 -51.5t69.5 -83t25.5 -115q0 -57 -24.5 -107t-62.5 -93t-82 -82t-81.5 -76t-62.5 -74t-25 -77q0 -68 39 -119t87.5 -102.5t87 -112t38.5 -146.5q0 -70 -27.5 -124t-74.5 -91t-108.5 -55t-129.5 -18 q-66 0 -134 12t-128 47q10 41 24.5 78t35.5 67q47 -33 102 -45t100 -12q78 0 126 29.5t48 105.5q0 61 -39.5 109.5t-87 99.5t-87.5 111.5t-40 142.5q0 59 25 108.5t61.5 92.5t80.5 79.5t81 73.5t61.5 75t24.5 79q0 82 -47 115.5t-137 33.5q-63 0 -107.5 -14t-74 -46t-48 -82 t-30.5 -122l-197 -1118h-159z" />
<glyph unicode="&#xe0;" horiz-adv-x="1085" d="M49 236v28t2 29q12 86 46 141t89.5 88t131 47.5t169.5 18.5l228 10l55 303q-35 20 -98.5 32.5t-128.5 12.5q-66 0 -135.5 -11t-120.5 -30q-2 14 -3 30.5t-1 33.5q0 20 2 43.5t6 42.5q72 20 136.5 27.5t133.5 7.5q51 0 104.5 -6.5t103.5 -18.5t94 -30.5t75 -43.5 l-137 -780q-2 -10 -2 -25q0 -51 59 -51h113l-6 -47q-12 -59 -44 -83.5t-90 -24.5q-68 0 -112.5 25.5t-67.5 90.5h-6q-82 -68 -160.5 -92t-158.5 -24q-133 0 -205 67.5t-72 188.5zM213 254q0 -70 34 -105.5t115 -35.5q70 0 146 22.5t139 73.5l49 272l-233 -8 q-117 -4 -174.5 -43t-73.5 -135q-2 -10 -2 -21v-20zM412 1497h157l105 -311q-25 -8 -56.5 -11.5t-60.5 -3.5q-53 76 -91 162t-54 164z" />
<glyph unicode="&#xe1;" horiz-adv-x="1085" d="M49 236v28t2 29q12 86 46 141t89.5 88t131 47.5t169.5 18.5l228 10l55 303q-35 20 -98.5 32.5t-128.5 12.5q-66 0 -135.5 -11t-120.5 -30q-2 14 -3 30.5t-1 33.5q0 20 2 43.5t6 42.5q72 20 136.5 27.5t133.5 7.5q51 0 104.5 -6.5t103.5 -18.5t94 -30.5t75 -43.5 l-137 -780q-2 -10 -2 -25q0 -51 59 -51h113l-6 -47q-12 -59 -44 -83.5t-90 -24.5q-68 0 -112.5 25.5t-67.5 90.5h-6q-82 -68 -160.5 -92t-158.5 -24q-133 0 -205 67.5t-72 188.5zM213 254q0 -70 34 -105.5t115 -35.5q70 0 146 22.5t139 73.5l49 272l-233 -8 q-117 -4 -174.5 -43t-73.5 -135q-2 -10 -2 -21v-20zM481 1184l209 313h168q-41 -80 -107.5 -166t-144.5 -160q-29 0 -64.5 3.5t-60.5 9.5z" />
<glyph unicode="&#xe2;" horiz-adv-x="1085" d="M49 236v28t2 29q12 86 46 141t89.5 88t131 47.5t169.5 18.5l228 10l55 303q-35 20 -98.5 32.5t-128.5 12.5q-66 0 -135.5 -11t-120.5 -30q-2 14 -3 30.5t-1 33.5q0 20 2 43.5t6 42.5q72 20 136.5 27.5t133.5 7.5q51 0 104.5 -6.5t103.5 -18.5t94 -30.5t75 -43.5 l-137 -780q-2 -10 -2 -25q0 -51 59 -51h113l-6 -47q-12 -59 -44 -83.5t-90 -24.5q-68 0 -112.5 25.5t-67.5 90.5h-6q-82 -68 -160.5 -92t-158.5 -24q-133 0 -205 67.5t-72 188.5zM213 254q0 -70 34 -105.5t115 -35.5q70 0 146 22.5t139 73.5l49 272l-233 -8 q-117 -4 -174.5 -43t-73.5 -135q-2 -10 -2 -21v-20zM305 1184q68 92 130.5 166.5t129.5 146.5h189q83 -149 149 -311q-57 -14 -131 -15l-125 230l-207 -230q-29 0 -67.5 3.5t-67.5 9.5z" />
<glyph unicode="&#xe3;" horiz-adv-x="1085" d="M49 236v28t2 29q12 86 46 141t89.5 88t131 47.5t169.5 18.5l228 10l55 303q-35 20 -98.5 32.5t-128.5 12.5q-66 0 -135.5 -11t-120.5 -30q-2 14 -3 30.5t-1 33.5q0 20 2 43.5t6 42.5q72 20 136.5 27.5t133.5 7.5q51 0 104.5 -6.5t103.5 -18.5t94 -30.5t75 -43.5 l-137 -780q-2 -10 -2 -25q0 -51 59 -51h113l-6 -47q-12 -59 -44 -83.5t-90 -24.5q-68 0 -112.5 25.5t-67.5 90.5h-6q-82 -68 -160.5 -92t-158.5 -24q-133 0 -205 67.5t-72 188.5zM213 254q0 -70 34 -105.5t115 -35.5q70 0 146 22.5t139 73.5l49 272l-233 -8 q-117 -4 -174.5 -43t-73.5 -135q-2 -10 -2 -21v-20zM297 1194q27 74 52.5 118t53 68.5t57 32.5t62.5 8q66 0 115 -28l96 -60q39 -25 70 -24q23 0 38 5t27.5 19.5t22.5 40t24 66.5q25 0 57.5 -7.5t57.5 -19.5q-27 -74 -52.5 -120t-54 -70.5t-59 -32.5t-67.5 -8q-55 0 -105 30 l-96 60q-39 25 -70 24q-25 0 -41 -7t-28.5 -22.5t-22.5 -40t-22 -59.5q-25 0 -56.5 7.5t-58.5 19.5z" />
<glyph unicode="&#xe4;" horiz-adv-x="1085" d="M49 236v28t2 29q12 86 46 141t89.5 88t131 47.5t169.5 18.5l228 10l55 303q-35 20 -98.5 32.5t-128.5 12.5q-66 0 -135.5 -11t-120.5 -30q-2 14 -3 30.5t-1 33.5q0 20 2 43.5t6 42.5q72 20 136.5 27.5t133.5 7.5q51 0 104.5 -6.5t103.5 -18.5t94 -30.5t75 -43.5 l-137 -780q-2 -10 -2 -25q0 -51 59 -51h113l-6 -47q-12 -59 -44 -83.5t-90 -24.5q-68 0 -112.5 25.5t-67.5 90.5h-6q-82 -68 -160.5 -92t-158.5 -24q-133 0 -205 67.5t-72 188.5zM213 254q0 -70 34 -105.5t115 -35.5q70 0 146 22.5t139 73.5l49 272l-233 -8 q-117 -4 -174.5 -43t-73.5 -135q-2 -10 -2 -21v-20zM367 1280q0 57 31.5 87t76.5 30q84 0 84 -82q0 -55 -30.5 -85t-75.5 -30q-41 0 -63.5 21.5t-22.5 58.5zM729 1280q0 57 32 87t75 30q84 0 84 -82q0 -55 -31 -85t-74 -30q-41 0 -63.5 21.5t-22.5 58.5z" />
<glyph unicode="&#xe5;" horiz-adv-x="1085" d="M49 236v28t2 29q12 86 46 141t89.5 88t131 47.5t169.5 18.5l228 10l55 303q-35 20 -98.5 32.5t-128.5 12.5q-66 0 -135.5 -11t-120.5 -30q-2 14 -3 30.5t-1 33.5q0 20 2 43.5t6 42.5q72 20 136.5 27.5t133.5 7.5q51 0 104.5 -6.5t103.5 -18.5t94 -30.5t75 -43.5 l-137 -780q-2 -10 -2 -25q0 -51 59 -51h113l-6 -47q-12 -59 -44 -83.5t-90 -24.5q-68 0 -112.5 25.5t-67.5 90.5h-6q-82 -68 -160.5 -92t-158.5 -24q-133 0 -205 67.5t-72 188.5zM213 254q0 -70 34 -105.5t115 -35.5q70 0 146 22.5t139 73.5l49 272l-233 -8 q-117 -4 -174.5 -43t-73.5 -135q-2 -10 -2 -21v-20zM389 1341q0 109 73 172.5t193 63.5q100 0 150.5 -47t50.5 -125q0 -109 -72.5 -173.5t-193.5 -64.5q-102 0 -151.5 50.5t-49.5 123.5zM510 1348q0 -90 92 -91q57 0 95 38t38 106q0 86 -94 86q-55 0 -93 -37t-38 -102z" />
<glyph unicode="&#xe6;" horiz-adv-x="1609" d="M49 240q0 184 108.5 269t307.5 91l237 8q16 86 43 159t66 124q-47 29 -122 42t-146 13q-72 0 -137.5 -11t-118.5 -30q-2 14 -3 29.5t-1 32.5q0 27 2 49t6 39q78 23 141.5 29t128.5 6q100 0 194.5 -19.5t166.5 -64.5q59 49 119.5 66.5t132.5 17.5q162 0 253 -85t91 -245 q0 -49 -11.5 -113.5t-25.5 -124.5l-645 -22q-6 -31 -8.5 -60.5t-2.5 -58.5q0 -117 57.5 -184.5t200.5 -67.5q76 0 150 19.5t127 48.5q8 -29 15 -71t7 -75q-66 -35 -150.5 -53t-162.5 -18q-119 0 -204 37.5t-138 121.5q-117 -98 -216 -128.5t-185 -30.5q-135 0 -206 68.5 t-71 191.5zM213 254q0 -70 35 -105.5t114 -35.5q72 0 158 26.5t170 96.5q-18 61 -18 143q0 29 2 57.5t6 57.5l-225 -7q-129 -4 -185.5 -65.5t-56.5 -167.5zM856 612l487 17q10 33 15.5 68.5t5.5 70.5q0 100 -55.5 147.5t-147.5 47.5q-111 0 -190.5 -81t-114.5 -270z" />
<glyph unicode="&#xe7;" horiz-adv-x="972" d="M117 403q0 72 12 152q25 158 78 261.5t122.5 163.5t153.5 85t170 25q68 0 145 -11.5t128 -34.5q-8 -41 -18.5 -78.5t-26.5 -72.5q-47 23 -116 34t-134 11q-139 0 -222 -95t-112 -298q-4 -35 -7 -71t-3 -71q0 -150 64.5 -211t191.5 -61q59 0 121.5 14.5t115.5 44.5 q10 -35 15.5 -73.5t7.5 -73.5q-31 -18 -67 -29.5t-73.5 -19.5t-73.5 -11t-65 -3q-199 0 -303 108.5t-104 314.5zM227 -383q0 35 6 64q29 -10 64 -13.5t59 -3.5q59 0 108.5 20.5t49.5 79.5q0 49 -29.5 67.5t-87.5 18.5q-18 0 -40.5 -2t-43.5 -6q4 25 14.5 50.5t20.5 44.5h101 q98 0 147 -42t49 -120q0 -111 -78 -165t-213 -54q-27 0 -61.5 4t-63.5 10q-2 10 -2 22v25z" />
<glyph unicode="&#xe8;" horiz-adv-x="1064" d="M117 403q0 70 12 150q23 150 71 252t113.5 165.5t146.5 91.5t169 28q164 0 254 -86t90 -244q0 -41 -11.5 -109.5t-27.5 -136.5h-643q-12 -68 -12 -123q0 -137 62 -199.5t198 -62.5q74 0 149.5 19.5t126.5 48.5q10 -33 15.5 -72t7.5 -74q-66 -35 -151 -53t-163 -18 q-203 0 -305 108.5t-102 314.5zM311 627h488q10 35 15 75.5t5 63.5q0 104 -55 150.5t-148 46.5q-115 0 -192.5 -79t-112.5 -257zM451 1497h157l105 -311q-25 -8 -56.5 -11.5t-60.5 -3.5q-53 76 -91 162t-54 164z" />
<glyph unicode="&#xe9;" horiz-adv-x="1064" d="M117 403q0 70 12 150q23 150 71 252t113.5 165.5t146.5 91.5t169 28q164 0 254 -86t90 -244q0 -41 -11.5 -109.5t-27.5 -136.5h-643q-12 -68 -12 -123q0 -137 62 -199.5t198 -62.5q74 0 149.5 19.5t126.5 48.5q10 -33 15.5 -72t7.5 -74q-66 -35 -151 -53t-163 -18 q-203 0 -305 108.5t-102 314.5zM311 627h488q10 35 15 75.5t5 63.5q0 104 -55 150.5t-148 46.5q-115 0 -192.5 -79t-112.5 -257zM539 1184l209 313h167q-41 -80 -107.5 -166t-143.5 -160q-29 0 -65 3.5t-60 9.5z" />
<glyph unicode="&#xea;" horiz-adv-x="1064" d="M117 403q0 70 12 150q23 150 71 252t113.5 165.5t146.5 91.5t169 28q164 0 254 -86t90 -244q0 -41 -11.5 -109.5t-27.5 -136.5h-643q-12 -68 -12 -123q0 -137 62 -199.5t198 -62.5q74 0 149.5 19.5t126.5 48.5q10 -33 15.5 -72t7.5 -74q-66 -35 -151 -53t-163 -18 q-203 0 -305 108.5t-102 314.5zM311 627h488q10 35 15 75.5t5 63.5q0 104 -55 150.5t-148 46.5q-115 0 -192.5 -79t-112.5 -257zM328 1184q68 92 130 166.5t130 146.5h188q84 -149 150 -311q-57 -14 -131 -15l-125 230l-207 -230q-29 0 -68 3.5t-67 9.5z" />
<glyph unicode="&#xeb;" horiz-adv-x="1064" d="M117 403q0 70 12 150q23 150 71 252t113.5 165.5t146.5 91.5t169 28q164 0 254 -86t90 -244q0 -41 -11.5 -109.5t-27.5 -136.5h-643q-12 -68 -12 -123q0 -137 62 -199.5t198 -62.5q74 0 149.5 19.5t126.5 48.5q10 -33 15.5 -72t7.5 -74q-66 -35 -151 -53t-163 -18 q-203 0 -305 108.5t-102 314.5zM311 627h488q10 35 15 75.5t5 63.5q0 104 -55 150.5t-148 46.5q-115 0 -192.5 -79t-112.5 -257zM393 1280q0 57 32 87t77 30q84 0 84 -82q0 -55 -31 -85t-76 -30q-41 0 -63.5 21.5t-22.5 58.5zM756 1280q0 57 31.5 87t74.5 30q84 0 84 -82 q0 -55 -30.5 -85t-73.5 -30q-41 0 -63.5 21.5t-22.5 58.5z" />
<glyph unicode="&#xec;" horiz-adv-x="573" d="M111 0l188 1069h158l-189 -1069h-157zM203 1497h157l105 -311q-25 -8 -56.5 -11.5t-60.5 -3.5q-53 76 -91 162t-54 164z" />
<glyph unicode="&#xed;" horiz-adv-x="573" d="M111 0l188 1069h158l-189 -1069h-157zM324 1184l208 313h168q-41 -80 -107.5 -166t-143.5 -160q-29 0 -65 3.5t-60 9.5z" />
<glyph unicode="&#xee;" horiz-adv-x="573" d="M88 1184q68 92 130.5 166.5t129.5 146.5h189q83 -149 149 -311q-57 -14 -131 -15l-125 230l-207 -230q-29 0 -67.5 3.5t-67.5 9.5zM111 0l188 1069h158l-189 -1069h-157z" />
<glyph unicode="&#xef;" horiz-adv-x="573" d="M111 0l188 1069h158l-189 -1069h-157zM145 1280q0 57 32 87t77 30q84 0 84 -82q0 -55 -31 -85t-76 -30q-41 0 -63.5 21.5t-22.5 58.5zM508 1280q0 57 31.5 87t74.5 30q84 0 84 -82q0 -55 -30.5 -85t-73.5 -30q-41 0 -63.5 21.5t-22.5 58.5z" />
<glyph unicode="&#xf0;" horiz-adv-x="1142" d="M115 375q0 195 46 327t122.5 213.5t175 117.5t205.5 36q53 0 117.5 -8t117.5 -25q0 160 -61.5 247t-202.5 93l-129 -202q-27 2 -53.5 6t-49.5 14l113 178q-49 -4 -98 -14t-86 -25q0 35 6 81t16 73q55 18 128 26.5t126 10.5l90 145q25 0 54.5 -6t50.5 -21l-82 -126 q72 -12 133 -43t107.5 -87.5t73 -140.5t26.5 -203q0 -248 -37 -445.5t-109.5 -334.5t-180 -209.5t-247.5 -72.5q-373 0 -372 395zM285 371q0 -135 52 -191.5t163 -56.5q88 0 152.5 43t110.5 135t76 238.5t48 353.5q-47 16 -107.5 26.5t-117.5 10.5q-68 0 -134.5 -23.5 t-121 -86t-88 -171t-33.5 -278.5z" />
<glyph unicode="&#xf1;" horiz-adv-x="1196" d="M109 0l186 1061q33 6 80 9t82 3l-19 -96h8q86 68 162 90.5t158 22.5q53 0 103.5 -13.5t89 -43t61 -76.5t22.5 -117q0 -18 -2 -41t-6 -39l-133 -760h-158l134 764q2 10 3 21.5t1 23.5q0 66 -42 100.5t-128 34.5t-156 -23.5t-137 -72.5l-150 -848h-159zM354 1194 q27 74 52.5 118t53 68.5t57.5 32.5t63 8q66 0 114 -28l97 -60q39 -25 69 -24q23 0 38 5t27.5 19.5t22.5 40t25 66.5q25 0 57 -7.5t57 -19.5q-27 -74 -52 -120t-54 -70.5t-59.5 -32.5t-67.5 -8q-55 0 -104 30l-97 60q-39 25 -69 24q-25 0 -41.5 -7t-28.5 -22.5t-22.5 -40 t-22.5 -59.5q-25 0 -56.5 7.5t-58.5 19.5z" />
<glyph unicode="&#xf2;" horiz-adv-x="1161" d="M117 395q0 39 2 77t10 85q49 276 182 404.5t332 128.5q86 0 158.5 -24t127 -74t85 -129.5t30.5 -192.5q0 -37 -2 -75t-10 -81q-49 -279 -184 -406.5t-332 -127.5q-178 0 -288.5 101t-110.5 314zM285 383q0 -143 65.5 -203.5t171.5 -60.5q68 0 121 20.5t95 67.5t74 126 t52 197q8 41 10.5 76t2.5 70q0 76 -17.5 128t-49.5 85t-76 47t-97 14q-61 0 -113.5 -17.5t-96.5 -63.5t-77 -125.5t-53 -202.5q-8 -47 -10 -85t-2 -73zM483 1497h158l104 -311q-25 -8 -56.5 -11.5t-59.5 -3.5q-53 76 -91 162t-55 164z" />
<glyph unicode="&#xf3;" horiz-adv-x="1161" d="M117 395q0 39 2 77t10 85q49 276 182 404.5t332 128.5q86 0 158.5 -24t127 -74t85 -129.5t30.5 -192.5q0 -37 -2 -75t-10 -81q-49 -279 -184 -406.5t-332 -127.5q-178 0 -288.5 101t-110.5 314zM285 383q0 -143 65.5 -203.5t171.5 -60.5q68 0 121 20.5t95 67.5t74 126 t52 197q8 41 10.5 76t2.5 70q0 76 -17.5 128t-49.5 85t-76 47t-97 14q-61 0 -113.5 -17.5t-96.5 -63.5t-77 -125.5t-53 -202.5q-8 -47 -10 -85t-2 -73zM590 1184l209 313h168q-41 -80 -107.5 -166t-144.5 -160q-29 0 -65 3.5t-60 9.5z" />
<glyph unicode="&#xf4;" horiz-adv-x="1161" d="M117 395q0 39 2 77t10 85q49 276 182 404.5t332 128.5q86 0 158.5 -24t127 -74t85 -129.5t30.5 -192.5q0 -37 -2 -75t-10 -81q-49 -279 -184 -406.5t-332 -127.5q-178 0 -288.5 101t-110.5 314zM285 383q0 -143 65.5 -203.5t171.5 -60.5q68 0 121 20.5t95 67.5t74 126 t52 197q8 41 10.5 76t2.5 70q0 76 -17.5 128t-49.5 85t-76 47t-97 14q-61 0 -113.5 -17.5t-96.5 -63.5t-77 -125.5t-53 -202.5q-8 -47 -10 -85t-2 -73zM362 1184q68 92 130.5 166.5t130.5 146.5h188q84 -149 150 -311q-57 -14 -132 -15l-124 230l-207 -230q-29 0 -68 3.5 t-68 9.5z" />
<glyph unicode="&#xf5;" horiz-adv-x="1161" d="M117 395q0 39 2 77t10 85q49 276 182 404.5t332 128.5q86 0 158.5 -24t127 -74t85 -129.5t30.5 -192.5q0 -37 -2 -75t-10 -81q-49 -279 -184 -406.5t-332 -127.5q-178 0 -288.5 101t-110.5 314zM285 383q0 -143 65.5 -203.5t171.5 -60.5q68 0 121 20.5t95 67.5t74 126 t52 197q8 41 10.5 76t2.5 70q0 76 -17.5 128t-49.5 85t-76 47t-97 14q-61 0 -113.5 -17.5t-96.5 -63.5t-77 -125.5t-53 -202.5q-8 -47 -10 -85t-2 -73zM311 1194q27 74 52.5 118t53 68.5t57.5 32.5t63 8q66 0 114 -28l97 -60q39 -25 69 -24q23 0 38 5t27.5 19.5t22.5 40 t25 66.5q25 0 57 -7.5t57 -19.5q-27 -74 -52 -120t-54 -70.5t-59.5 -32.5t-67.5 -8q-55 0 -104 30l-97 60q-39 25 -69 24q-25 0 -41.5 -7t-28.5 -22.5t-22.5 -40t-22.5 -59.5q-25 0 -56.5 7.5t-58.5 19.5z" />
<glyph unicode="&#xf6;" horiz-adv-x="1161" d="M117 395q0 39 2 77t10 85q49 276 182 404.5t332 128.5q86 0 158.5 -24t127 -74t85 -129.5t30.5 -192.5q0 -37 -2 -75t-10 -81q-49 -279 -184 -406.5t-332 -127.5q-178 0 -288.5 101t-110.5 314zM285 383q0 -143 65.5 -203.5t171.5 -60.5q68 0 121 20.5t95 67.5t74 126 t52 197q8 41 10.5 76t2.5 70q0 76 -17.5 128t-49.5 85t-76 47t-97 14q-61 0 -113.5 -17.5t-96.5 -63.5t-77 -125.5t-53 -202.5q-8 -47 -10 -85t-2 -73zM412 1280q0 57 31.5 87t76.5 30q84 0 84 -82q0 -55 -30.5 -85t-75.5 -30q-41 0 -63.5 21.5t-22.5 58.5zM774 1280 q0 57 32 87t75 30q84 0 84 -82q0 -55 -31 -85t-74 -30q-41 0 -63.5 21.5t-22.5 58.5z" />
<glyph unicode="&#xf7;" horiz-adv-x="835" d="M121 506l20 110h572l-21 -110h-571zM252 158q0 55 31.5 85.5t76.5 30.5q41 0 63.5 -22t22.5 -59q0 -57 -31.5 -87t-74.5 -30q-88 0 -88 82zM389 928q0 55 32 85.5t77 30.5q41 0 62.5 -22t21.5 -59q0 -57 -31 -88t-76 -31q-41 0 -63.5 22.5t-22.5 61.5z" />
<glyph unicode="&#xf8;" horiz-adv-x="1161" d="M45 -154l172 244q-47 51 -73.5 126t-26.5 179q0 39 2 77t10 85q51 276 183 404.5t331 128.5q70 0 131.5 -15.5t110.5 -48.5l129 180h90l-162 -227q47 -51 74.5 -128t27.5 -181q0 -37 -2 -75t-10 -81q-49 -279 -184 -406.5t-332 -127.5q-72 0 -133 15t-109 48l-139 -197 h-90zM285 383q0 -96 30 -156l482 674q-31 27 -72 38t-88 11q-61 0 -113.5 -17.5t-95.5 -63.5t-76 -125.5t-55 -202.5q-8 -47 -10 -85t-2 -73zM362 168q31 -27 72 -38t88 -11q68 0 121 20.5t96 67.5t74 126t51 197q8 41 10.5 76t2.5 70q0 100 -35 164z" />
<glyph unicode="&#xf9;" horiz-adv-x="1189" d="M147 231q0 18 2.5 40t6.5 40l133 752q33 4 80 8t82 4l-138 -768q-2 -10 -3 -21.5t-1 -21.5q0 -66 41 -102.5t133 -36.5q145 0 283 90l149 848q33 4 80 8t82 4l-190 -1075h-160l16 92h-8q-78 -63 -152.5 -87.5t-156.5 -24.5q-53 0 -103.5 14t-89 44t-62.5 78t-24 115z M502 1497h157l105 -311q-25 -8 -56.5 -11.5t-60.5 -3.5q-53 76 -91 162t-54 164z" />
<glyph unicode="&#xfa;" horiz-adv-x="1189" d="M147 231q0 18 2.5 40t6.5 40l133 752q33 4 80 8t82 4l-138 -768q-2 -10 -3 -21.5t-1 -21.5q0 -66 41 -102.5t133 -36.5q145 0 283 90l149 848q33 4 80 8t82 4l-190 -1075h-160l16 92h-8q-78 -63 -152.5 -87.5t-156.5 -24.5q-53 0 -103.5 14t-89 44t-62.5 78t-24 115z M598 1184l209 313h168q-41 -80 -107.5 -166t-144.5 -160q-29 0 -64.5 3.5t-60.5 9.5z" />
<glyph unicode="&#xfb;" horiz-adv-x="1189" d="M147 231q0 18 2.5 40t6.5 40l133 752q33 4 80 8t82 4l-138 -768q-2 -10 -3 -21.5t-1 -21.5q0 -66 41 -102.5t133 -36.5q145 0 283 90l149 848q33 4 80 8t82 4l-190 -1075h-160l16 92h-8q-78 -63 -152.5 -87.5t-156.5 -24.5q-53 0 -103.5 14t-89 44t-62.5 78t-24 115z M395 1184q68 92 130.5 166.5t129.5 146.5h189q83 -149 149 -311q-57 -14 -131 -15l-125 230l-207 -230q-29 0 -67.5 3.5t-67.5 9.5z" />
<glyph unicode="&#xfc;" horiz-adv-x="1189" d="M147 231q0 18 2.5 40t6.5 40l133 752q33 4 80 8t82 4l-138 -768q-2 -10 -3 -21.5t-1 -21.5q0 -66 41 -102.5t133 -36.5q145 0 283 90l149 848q33 4 80 8t82 4l-190 -1075h-160l16 92h-8q-78 -63 -152.5 -87.5t-156.5 -24.5q-53 0 -103.5 14t-89 44t-62.5 78t-24 115z M451 1280q0 57 31.5 87t76.5 30q84 0 84 -82q0 -55 -30.5 -85t-75.5 -30q-41 0 -63.5 21.5t-22.5 58.5zM813 1280q0 57 32 87t75 30q84 0 84 -82q0 -55 -31 -85t-74 -30q-41 0 -63.5 21.5t-22.5 58.5z" />
<glyph unicode="&#xfd;" horiz-adv-x="1034" d="M-127 -403q10 39 21.5 76.5t27.5 66.5q29 -16 69 -22.5t83 -6.5q57 0 107 30t102 114l90 149q-27 115 -54.5 246t-51 267t-43 274.5t-31.5 269.5q33 8 74.5 11t76.5 3l119 -786q4 -29 7 -59.5t3 -65.5h10q23 68 52 127l399 784q33 0 80 -3t80 -11l-557 -1063 q-68 -131 -127.5 -216t-115.5 -135t-115.5 -69.5t-131.5 -19.5q-37 0 -84 8t-90 31zM530 1184l209 313h168q-41 -80 -107.5 -166t-144.5 -160q-29 0 -64.5 3.5t-60.5 9.5z" />
<glyph unicode="&#xfe;" horiz-adv-x="1175" d="M33 -422l342 1931q33 6 80 10.5t82 4.5l-97 -537h11q66 55 132 79t138 24q150 0 242 -100.5t92 -284.5q0 -47 -4 -94.5t-11 -88.5q-45 -279 -176 -410.5t-354 -131.5q-25 0 -55.5 3t-63.5 8t-64.5 13t-56.5 19l-77 -445h-160zM297 170q41 -25 101.5 -37t113.5 -12 q145 0 233.5 89t124.5 304q6 35 12.5 88t6.5 94q0 250 -223 250q-63 0 -125 -21.5t-123 -68.5z" />
<glyph unicode="&#xff;" horiz-adv-x="1034" d="M-127 -403q10 39 21.5 76.5t27.5 66.5q29 -16 69 -22.5t83 -6.5q57 0 107 30t102 114l90 149q-27 115 -54.5 246t-51 267t-43 274.5t-31.5 269.5q33 8 74.5 11t76.5 3l119 -786q4 -29 7 -59.5t3 -65.5h10q23 68 52 127l399 784q33 0 80 -3t80 -11l-557 -1063 q-68 -131 -127.5 -216t-115.5 -135t-115.5 -69.5t-131.5 -19.5q-37 0 -84 8t-90 31zM389 1280q0 57 32 87t77 30q84 0 84 -82q0 -55 -31 -85t-76 -30q-41 0 -63.5 21.5t-22.5 58.5zM752 1280q0 57 31.5 87t74.5 30q84 0 84 -82q0 -55 -30.5 -85t-73.5 -30q-41 0 -63.5 21.5 t-22.5 58.5z" />
<glyph unicode="&#x152;" horiz-adv-x="1933" d="M135 496q0 90 19 213q12 78 32 153q39 147 100.5 249.5t140.5 167t172 93.5t198 29q117 0 217 -48t153 -161h4l33 188h727q-4 -35 -14 -75.5t-25 -75.5h-573l-76 -432h438q-8 -37 -13 -74t-13 -76h-438l-89 -495h619q-4 -37 -13.5 -77t-23.5 -75h-749l24 141h-2 q-70 -86 -164 -123.5t-211 -37.5q-231 0 -352 134t-121 382zM315 471q0 -180 80 -261t230 -81q98 0 168.5 32t122 97.5t86 169.5t61.5 248q12 66 18 126t6 107q0 94 -21.5 159t-61 104.5t-96 58t-128.5 18.5q-78 0 -142.5 -20.5t-116.5 -69.5t-91 -132t-68 -208 q-10 -37 -15 -68.5t-11 -70.5q-10 -59 -15.5 -109.5t-5.5 -99.5z" />
<glyph unicode="&#x153;" horiz-adv-x="1783" d="M117 395q0 47 2 84t10 78q47 262 175 397.5t339 135.5q129 0 221 -55.5t129 -160.5q61 117 152.5 166.5t202.5 49.5q170 0 257 -89t87 -241q0 -45 -10.5 -110.5t-28.5 -135.5h-637q-8 -39 -11.5 -70.5t-3.5 -56.5q0 -137 63.5 -197.5t192.5 -60.5q70 0 146 18.5t131 49.5 q10 -31 17.5 -74t7.5 -72q-66 -37 -150 -54t-164 -17q-143 0 -227 57t-125 162q-70 -115 -160 -167t-217 -52q-180 0 -289.5 102t-109.5 313zM285 383q0 -143 65.5 -203.5t171.5 -60.5q68 0 122 21.5t96 69.5t73 127t51 193q8 41 10.5 77t2.5 69q0 147 -66 210.5t-174 63.5 q-63 0 -116.5 -19.5t-96.5 -65.5t-75 -124.5t-52 -199.5q-8 -41 -10 -82t-2 -76zM1034 627h484q22 80 22 139q0 104 -56.5 150.5t-146.5 46.5q-109 0 -187.5 -76t-115.5 -260z" />
<glyph unicode="&#x178;" horiz-adv-x="1138" d="M217 1370q39 8 87 11t83 3l188 -604q16 -49 23 -102h12q27 55 60 106l401 600q39 0 88 -3t84 -11q-74 -117 -143.5 -223.5t-140 -208.5t-142.5 -203.5t-151 -210.5l-93 -524h-174l93 524q-86 211 -152 423t-123 423zM467 1532q0 49 30.5 76.5t71.5 27.5q82 1 82 -71 q0 -49 -29.5 -76t-70.5 -27q-84 0 -84 70zM829 1532q0 49 31 76.5t74 27.5q37 0 59.5 -18t22.5 -53q0 -49 -31 -76t-72 -27q-84 0 -84 70z" />
<glyph unicode="&#x2c6;" d="M184 1184q68 92 130.5 166.5t129.5 146.5h189q83 -149 149 -311q-57 -14 -131 -15l-125 230l-207 -230q-29 0 -67.5 3.5t-67.5 9.5z" />
<glyph unicode="&#x2dc;" d="M143 1194q27 74 52.5 118t53 68.5t57.5 32.5t63 8q66 0 114 -28l97 -60q39 -25 69 -24q23 0 38 5t27.5 19.5t23 40t24.5 66.5q25 0 57.5 -7.5t57.5 -19.5q-27 -74 -52.5 -120t-54.5 -70.5t-59.5 -32.5t-67.5 -8q-55 0 -104 30l-97 60q-39 25 -69 24q-25 0 -41.5 -7 t-28.5 -22.5t-22.5 -40t-22.5 -59.5q-25 0 -56.5 7.5t-58.5 19.5z" />
<glyph unicode="&#x2000;" horiz-adv-x="866" />
<glyph unicode="&#x2001;" horiz-adv-x="1733" />
<glyph unicode="&#x2002;" horiz-adv-x="866" />
<glyph unicode="&#x2003;" horiz-adv-x="1733" />
<glyph unicode="&#x2004;" horiz-adv-x="577" />
<glyph unicode="&#x2005;" horiz-adv-x="433" />
<glyph unicode="&#x2006;" horiz-adv-x="288" />
<glyph unicode="&#x2007;" horiz-adv-x="288" />
<glyph unicode="&#x2008;" horiz-adv-x="216" />
<glyph unicode="&#x2009;" horiz-adv-x="346" />
<glyph unicode="&#x200a;" horiz-adv-x="96" />
<glyph unicode="&#x2010;" horiz-adv-x="512" d="M61 545l25 139h375l-25 -139h-375z" />
<glyph unicode="&#x2011;" horiz-adv-x="512" d="M61 545l25 139h375l-25 -139h-375z" />
<glyph unicode="&#x2012;" horiz-adv-x="512" d="M61 545l25 139h375l-25 -139h-375z" />
<glyph unicode="&#x2013;" d="M94 481l23 125h815q-10 -63 -39 -125h-799z" />
<glyph unicode="&#x2014;" horiz-adv-x="2048" d="M123 481l22 125h1780q-4 -29 -14 -62.5t-23 -62.5h-1765z" />
<glyph unicode="&#x2018;" horiz-adv-x="456" d="M176 922l27 155q49 289 297 402q33 -37 49 -95q-98 -37 -150.5 -108.5t-68.5 -157.5h80q6 -33 6 -69q0 -66 -17 -127h-223z" />
<glyph unicode="&#x2019;" horiz-adv-x="456" d="M117 997q98 37 150 108t69 159h-80q-6 31 -6 69q0 66 16 127h223l-26 -155q-49 -289 -297 -402q-16 16 -28.5 41t-20.5 53z" />
<glyph unicode="&#x201a;" horiz-adv-x="456" d="M-47 -123q98 37 150.5 107.5t68.5 158.5h-80q-6 31 -6 70q0 66 16 127h224l-27 -156q-49 -289 -297 -401q-16 16 -28.5 40.5t-20.5 53.5z" />
<glyph unicode="&#x201c;" horiz-adv-x="825" d="M176 922l27 155q49 289 297 402q33 -37 49 -95q-98 -37 -150.5 -108.5t-68.5 -157.5h80q6 -33 6 -69q0 -66 -17 -127h-223zM543 922l28 155q27 145 97.5 244.5t199.5 157.5q16 -18 28.5 -42t18.5 -53q-98 -37 -149 -108.5t-68 -157.5h78q6 -33 6 -69q0 -66 -16 -127h-223 z" />
<glyph unicode="&#x201d;" horiz-adv-x="825" d="M117 997q98 37 150 108t69 159h-80q-6 31 -6 69q0 66 16 127h223l-26 -155q-49 -289 -297 -402q-16 16 -28.5 41t-20.5 53zM485 997q98 37 149.5 108t67.5 159h-77q-6 31 -7 69q0 66 17 127h223l-29 -155q-27 -145 -97 -244.5t-200 -157.5q-16 16 -28 41t-19 53z" />
<glyph unicode="&#x201e;" horiz-adv-x="825" d="M-47 -123q98 37 150.5 107.5t68.5 158.5h-80q-6 31 -6 70q0 66 16 127h224l-27 -156q-49 -289 -297 -401q-16 16 -28.5 40.5t-20.5 53.5zM322 -123q98 37 150 107.5t69 158.5h-80q-6 31 -6 70q0 66 16 127h223l-26 -156q-49 -289 -297 -401q-16 16 -28.5 40.5t-20.5 53.5 z" />
<glyph unicode="&#x2022;" horiz-adv-x="720" d="M154 539q0 55 18 99t51 74.5t75 47t91 16.5q76 0 124 -46t48 -132q0 -111 -68.5 -172t-166.5 -61q-80 0 -126 48t-46 126z" />
<glyph unicode="&#x2026;" horiz-adv-x="1284" d="M53 59q0 55 32 86t77 31q41 0 63.5 -22.5t22.5 -59.5q0 -57 -32 -87t-75 -30q-88 0 -88 82zM477 59q0 55 31 86t78 31q41 0 62.5 -22.5t21.5 -59.5q0 -57 -31 -87t-76 -30q-86 0 -86 82zM899 59q0 55 32 86t77 31q41 0 63.5 -22.5t22.5 -59.5q0 -57 -31 -87t-76 -30 q-88 0 -88 82z" />
<glyph unicode="&#x202f;" horiz-adv-x="346" />
<glyph unicode="&#x2039;" horiz-adv-x="542" d="M51 547l361 442l129 -28l-328 -424l174 -422l-127 -27z" />
<glyph unicode="&#x203a;" horiz-adv-x="542" d="M2 117l326 424l-174 422l129 26l206 -459l-360 -442z" />
<glyph unicode="&#x205f;" horiz-adv-x="433" />
<glyph unicode="&#x20ac;" d="M49 475l21 115h120q6 53 16.5 112.5t20.5 110.5h-118l18 115h129q43 137 100.5 228t127 145.5t150.5 77t169 22.5q61 0 134 -10.5t116 -30.5q-8 -76 -37 -154q-43 23 -107.5 34t-122.5 11q-63 0 -115.5 -14t-96.5 -51t-79.5 -99.5t-66.5 -158.5h479q-2 -23 -10 -55.5 t-20 -59.5h-480q-12 -49 -23.5 -109.5t-17.5 -113.5h455q-2 -25 -9 -56.5t-20 -58.5h-434v-45q0 -156 59.5 -228.5t188.5 -72.5q66 0 134.5 14.5t127.5 42.5q2 -20 3 -39.5t1 -42.5q0 -18 -1 -37.5t-3 -37.5q-59 -25 -137 -37t-143 -12q-193 0 -293.5 110.5t-100.5 343.5v41 h-135z" />
<glyph unicode="&#x2122;" horiz-adv-x="1517" d="M119 1276l18 104h514q-4 -23 -10 -51.5t-16 -52.5h-193l-106 -610h-117l106 610h-196zM575 668q43 178 94.5 355t110.5 357h121l105 -524q4 -12 5 -31.5t1 -36.5h10q4 20 11 37t16 31l284 524h123q-6 -180 -19.5 -360t-31.5 -354q-25 -2 -53 -2h-52l43 471q4 41 11 69h-8 q-6 -16 -14.5 -33.5t-16.5 -29.5l-262 -475h-115l-96 475q-6 31 -6 63h-9q-2 -10 -6 -31.5t-8 -37.5l-135 -473q-18 0 -52 2t-51 4z" />
<glyph unicode="&#x25fc;" horiz-adv-x="1075" d="M0 0v1075h1075v-1075h-1075z" />
<glyph unicode="&#xfb01;" horiz-adv-x="1220" d="M137 0l164 932h-131l25 137h131l24 135q29 164 118 242t234 78q23 0 48.5 -2t48.5 -6q-6 -72 -29 -144q-16 2 -44 4t-52 2q-72 0 -111 -40t-53 -124l-25 -145h619l-189 -1069h-157l164 932h-461l-164 -932h-160zM979 1354q0 53 30.5 86t80.5 33q43 0 64.5 -24.5 t21.5 -59.5q0 -53 -31 -86t-80 -33q-43 0 -64.5 24.5t-21.5 59.5z" />
<glyph unicode="&#xfb02;" horiz-adv-x="1236" d="M137 0l164 932h-131l25 137h131l26 141q29 158 130.5 236t312.5 78q43 0 95 -2t107.5 -7.5t107.5 -11.5t95 -14l-262 -1489h-160l242 1366q-20 4 -51 7t-67 6t-71.5 5t-66.5 2q-68 0 -113 -11t-73.5 -32.5t-45 -54.5t-22.5 -74l-25 -145h234q-6 -35 -16.5 -68.5 t-20.5 -68.5h-221l-164 -932h-160z" />
</font>
</defs>
</svg>
